<?xml version="1.0" encoding="UTF-8"?>
<svg width="52px" height="52px" viewBox="0 0 52 52" version="1.1" xmlns="http://www.w3.org/2000/svg" xmlns:xlink="http://www.w3.org/1999/xlink">
    <title>972231A9-84EB-4AEE-98CF-C7E272B6EB41</title>
    <g id="00_Home" stroke="none" stroke-width="1" fill="none" fill-rule="evenodd">
        <g transform="translate(-59.000000, -764.000000)" id="00_Hero">
            <g id="Video" transform="translate(0.000000, 330.000000)">
                <g id="ico_play" transform="translate(60.000000, 435.000000)">
                    <circle id="Oval" stroke="#B89151" cx="25" cy="25" r="25"></circle>
                    <path d="M30.7083959,25.2167077 L21.8066057,20.0776203 C21.6274373,19.9741266 21.4379029,19.9741266 21.2580887,20.0776203 C21.0789202,20.1811141 21,20.3725693 21,20.5795569 L21,30.8577316 C21,31.0647192 21.0789136,31.2561744 21.2587345,31.3596682 C21.3486449,31.4114151 21.4327365,31.4372886 21.5329847,31.4372886 C21.6332329,31.4372886 21.7251023,31.4114151 21.8150011,31.3596682 L30.7121548,26.2205809 C30.8913232,26.1170871 31,25.9256319 31,25.7186443 C31,25.5116567 30.8874501,25.3202015 30.70828,25.2167077 L30.7083959,25.2167077 Z" id="Fill-1" fill="#B78F4E"></path>
                </g>
            </g>
        </g>
    </g>
</svg>