<?xml version="1.0" encoding="UTF-8"?>
<svg width="23px" height="23px" viewBox="0 0 23 23" version="1.1" xmlns="http://www.w3.org/2000/svg" xmlns:xlink="http://www.w3.org/1999/xlink">
    <title>5F4B4234-DC48-4D9E-8452-C30254EA6B8C</title>
    <g id="00_Home" stroke="none" stroke-width="1" fill="none" fill-rule="evenodd">
        <g transform="translate(-144.000000, -3930.000000)" fill="#FFFFFF" id="Mobile/Footer">
            <g transform="translate(-1.000000, 3504.000000)">
                <g id="Group-3" transform="translate(0.000000, 63.000000)">
                    <g id="social" transform="translate(103.000000, 361.000000)">
                        <g id="Shape" transform="translate(42.000000, 2.000000)">
                            <path d="M11.4999772,2.07211402 C14.5706245,2.07211402 14.9343126,2.08380025 16.1469412,2.13912722 C17.2681798,2.19030011 17.8770961,2.37764493 18.2823708,2.53508944 C18.8191156,2.74370684 19.2022503,2.99295214 19.6046491,3.39535091 C20.0070479,3.79774969 20.2562932,4.18088445 20.4648649,4.71762917 C20.6223551,5.12290385 20.8096999,5.73182016 20.8608728,6.85301315 C20.9161998,8.06568739 20.927886,8.42937554 20.927886,11.5000228 C20.927886,14.5706701 20.9161998,14.9343583 20.8608728,16.1469868 C20.8096999,17.2682255 20.6223551,17.8771418 20.4648649,18.2824165 C20.2562932,18.8191612 20.0070479,19.202296 19.6046491,19.6046947 C19.2022503,20.0070935 18.8191156,20.2563388 18.2823708,20.4649106 C17.8770961,20.6224007 17.2681798,20.8097455 16.1469412,20.8609184 C14.9344952,20.9162454 14.5708071,20.9279316 11.4999772,20.9279316 C8.42914729,20.9279316 8.06545914,20.9162454 6.85301315,20.8609184 C5.73177451,20.8097455 5.1228582,20.6224007 4.71762917,20.4649106 C4.1808388,20.2563388 3.79770404,20.0070935 3.39530526,19.6046947 C2.99290649,19.202296 2.74366119,18.8191612 2.53508944,18.2824165 C2.37759928,17.8771418 2.19025447,17.2682255 2.13908158,16.1470325 C2.0837546,14.9343583 2.07206837,14.5706701 2.07206837,11.5000228 C2.07206837,8.42937554 2.0837546,8.06568739 2.13908158,6.8530588 C2.19025447,5.73182016 2.37759928,5.12290385 2.53508944,4.71762917 C2.74366119,4.18088445 2.99290649,3.79774969 3.39530526,3.39535091 C3.79770404,2.99295214 4.1808388,2.74370684 4.71762917,2.53508944 C5.1228582,2.37764493 5.73177451,2.19030011 6.8529675,2.13912722 C8.06564174,2.08380025 8.42932989,2.07211402 11.4999772,2.07211402 M12.6458031,0.000832959278 C14.7471316,0.00446484022 15.1840175,0.0209577611 16.2413896,0.069204372 C17.4654762,0.125079142 18.3014066,0.319453955 19.032937,0.603757932 C19.7891636,0.897648266 20.430491,1.29087152 21.0698097,1.93019028 C21.7091285,2.56950903 22.1023517,3.21083636 22.3962421,3.96706302 C22.680546,4.69859341 22.8749209,5.53452379 22.9307956,6.75861036 C22.9790422,7.81598245 22.9955352,8.25286844 22.999167,10.3541969 L22.9999516,11.1865274 L22.9999516,11.1865274 L23,11.5000228 C23,11.6077206 22.9999843,11.7121703 22.9999516,11.8135182 L22.999167,12.6458487 C22.9955352,14.7471772 22.9790422,15.1840632 22.9307956,16.2414353 C22.8749209,17.4655219 22.680546,18.3014522 22.3962421,19.0329826 C22.1023517,19.7892093 21.7091285,20.4305366 21.0698097,21.0698554 C20.430491,21.7091741 19.7891636,22.1023974 19.032937,22.3962877 C18.3014066,22.6805917 17.4654762,22.8749665 16.2413896,22.9308413 C15.1840175,22.9790879 14.7471316,22.9955469 12.6458031,22.9991694 L11.8134726,22.9999517 L11.8134726,22.9999517 L11.4999772,23 C11.3922794,23 11.2878297,22.9999843 11.1864819,22.9999517 L10.3541535,22.9991694 C8.25283365,22.9955469 7.81597615,22.9790879 6.75856471,22.9308413 C5.53447814,22.8749665 4.69854776,22.6805917 3.96701737,22.3962877 C3.21079071,22.1023974 2.56946338,21.7091741 1.93014463,21.0698554 C1.29082588,20.4305366 0.897602617,19.7891636 0.603712282,19.0329826 C0.319408305,18.3014522 0.125033493,17.4655219 0.0691587227,16.2414353 C0.0209121118,15.1840632 0.00445311578,14.7471772 0.000830593427,12.6458487 L0.000830593427,10.3541969 C0.00445311578,8.25286844 0.0209121118,7.81598245 0.0691587227,6.75861036 C0.125033493,5.53452379 0.319408305,4.69859341 0.603712282,3.96706302 C0.897602617,3.21083636 1.29082588,2.56950903 1.93014463,1.93019028 C2.56946338,1.29087152 3.21079071,0.897648266 3.96701737,0.603757932 C4.69854776,0.319453955 5.53447814,0.125079142 6.75856471,0.069204372 C7.81597615,0.0209577611 8.25283365,0.00446484022 10.3541535,0.000832959278 Z M11.5228175,5.61309524 C8.25898247,5.61309524 5.61309524,8.25898247 5.61309524,11.5228175 C5.61309524,14.7866525 8.25898247,17.4325397 11.5228175,17.4325397 C14.7866525,17.4325397 17.4325397,14.7866525 17.4325397,11.5228175 C17.4325397,8.25898247 14.7866525,5.61309524 11.5228175,5.61309524 Z M11.5228175,7.68667156 C13.6414368,7.68667156 15.3589634,9.40419815 15.3589634,11.5228175 C15.3589634,13.6414368 13.6414368,15.3589634 11.5228175,15.3589634 C9.40419815,15.3589634 7.68667156,13.6414368 7.68667156,11.5228175 C7.68667156,9.40419815 9.40419815,7.68667156 11.5228175,7.68667156 Z M17.615102,3.9702381 C16.8589908,3.9702381 16.2460317,4.58315189 16.2460317,5.33926307 C16.2460317,6.09537425 16.8589908,6.70833333 17.615102,6.70833333 C18.3712132,6.70833333 18.984127,6.09537425 18.984127,5.33926307 C18.984127,4.58315189 18.3712132,3.9702381 17.615102,3.9702381 Z"></path>
                        </g>
                    </g>
                </g>
            </g>
        </g>
    </g>
</svg>