<?xml version="1.0" encoding="UTF-8"?>
<svg width="240px" height="22px" viewBox="0 0 240 22" version="1.1" xmlns="http://www.w3.org/2000/svg" xmlns:xlink="http://www.w3.org/1999/xlink">
    <title>0B6E57BA-7F46-4EDB-ADB6-6C5B117FEF86</title>
    <g id="Menu" stroke="none" stroke-width="1" fill="none" fill-rule="evenodd">
        <g id="00_Home_menu_5" transform="translate(-61.000000, -67.000000)">
            <rect fill="#F9F8F1" x="0" y="0" width="1440" height="860"></rect>
            <g id="Logo" transform="translate(61.000000, 67.000000)" fill="#B78F4E">
                <path d="M38.1798652,1.03059581 L38.1798652,1.48289492 C37.7873375,1.48289492 37.5910736,1.63697483 37.5910736,1.93767918 C37.5910736,2.08678877 37.6540719,2.28808673 37.7752225,2.54157304 C37.898796,2.76772259 38.0587147,3.09327854 38.2549786,3.51824088 L45.3059396,18.5161809 L45.8196178,19.5698887 C45.9456144,19.8208899 46.0522268,20.009762 46.1515703,20.13402 C46.2727208,20.2632483 46.3962944,20.335318 46.5174449,20.3626547 C46.6434414,20.3875063 46.8130522,20.397447 47.0335462,20.397447 L47.0335462,20.8497461 L41.9258397,20.8497461 L41.9258397,20.397447 C42.221447,20.397447 42.4152879,20.3626547 42.5170543,20.2856148 C42.6139747,20.1837232 42.6624349,20.0495246 42.6624349,19.8705931 C42.6624349,19.7463351 42.6236668,19.6220771 42.5509765,19.4928488 C42.5049393,19.3462243 42.3789427,19.0430348 42.1826788,18.5907357 L40.7894477,15.5762367 L30.394732,15.5762367 L29.1420355,18.5907357 L28.812506,19.3462243 C28.6889325,19.6220771 28.6283572,19.8358008 28.6283572,19.9824253 C28.6283572,20.2632483 28.8367362,20.397447 29.253494,20.397447 L29.253494,20.8497461 L24.7370021,20.8497461 L24.7370021,20.397447 C24.8823828,20.397447 25.0035333,20.3875063 25.1028767,20.3626547 C25.2240273,20.335318 25.3379088,20.2632483 25.4348292,20.13402 C25.5341726,20.009762 25.6432081,19.8358008 25.7643586,19.6071661 L26.2441148,18.6280131 L32.890433,3.40640868 L33.3314209,2.46701824 C33.4307644,2.24086869 33.4768016,2.06193717 33.4768016,1.93767918 C33.4768016,1.63697483 33.2563076,1.48289492 32.8177427,1.48289492 L32.8177427,1.03059581 L38.1798652,1.03059581 Z M167.23341,0.61769685 C168.838761,0.61769685 170.319496,0.847181319 171.678058,1.29866707 C173.03662,1.72770325 174.209479,2.38123511 175.199079,3.26425143 C176.21067,4.12232379 176.990133,5.17994787 177.532581,6.44211245 C178.099463,7.70427703 178.38046,9.15352134 178.38046,10.7898454 C178.38046,12.4286638 178.099463,13.8804025 177.532581,15.1400727 C176.990133,16.3997429 176.21067,17.4598614 175.199079,18.3154393 C174.209479,19.1735117 173.03662,19.817066 171.678058,20.2461021 C170.319496,20.6477 168.838761,20.8497461 167.23341,20.8497461 C165.628059,20.8497461 164.147324,20.6477 162.788762,20.2461021 C161.4302,19.817066 160.245123,19.1735117 159.231089,18.3154393 C158.243932,17.4598614 157.466913,16.3997429 156.897587,15.1400727 C156.35514,13.8804025 156.083916,12.4286638 156.083916,10.7898454 C156.083916,9.15352134 156.35514,7.70427703 156.897587,6.44211245 C157.466913,5.17994787 158.243932,4.12232379 159.231089,3.26425143 C160.245123,2.38123511 161.4302,1.72770325 162.788762,1.29866707 C164.147324,0.847181319 165.628059,0.61769685 167.23341,0.61769685 Z M148.29662,1.03059581 C150.754731,1.03059581 152.522113,1.50532088 153.591391,2.45974196 C154.658212,3.38930833 155.191622,4.74886127 155.191622,6.53342986 C155.191622,8.1117043 154.783575,9.36686744 153.962566,10.2964338 C153.141557,11.2260002 151.801886,11.8175424 149.93618,12.068575 L154.63363,19.415629 C154.906481,19.8182754 155.117878,20.0842208 155.265365,20.2084944 C155.442349,20.332768 155.715199,20.3998757 156.083916,20.3998757 L156.083916,20.8497461 L150.720317,20.8497461 L150.720317,20.3998757 C151.044788,20.3998757 151.241437,20.3725355 151.317638,20.3203406 C151.415963,20.2706312 151.462667,20.1861252 151.462667,20.0568806 C151.462667,19.9077523 151.403672,19.7710514 151.280767,19.6418069 L146.696389,12.2574709 L139.838259,12.2574709 L139.838259,19.4926786 C139.838259,19.7710514 139.897253,19.9972293 140.025075,20.1712123 C140.147981,20.3203406 140.383959,20.3998757 140.733011,20.3998757 L140.733011,20.8497461 L135.814331,20.8497461 L135.814331,20.3998757 C136.160924,20.3998757 136.396903,20.3203406 136.519809,20.1712123 C136.645172,19.9972293 136.706625,19.7710514 136.706625,19.4926786 L136.706625,2.38766329 C136.706625,2.106805 136.645172,1.89553992 136.519809,1.74641162 C136.396903,1.56745767 136.160924,1.48046617 135.814331,1.48046617 L135.814331,1.03059581 L148.29662,1.03059581 Z M53.6884062,1.03059581 L53.6884062,1.48046617 C53.4176447,1.48046617 53.2322584,1.52271918 53.137126,1.59479786 C53.037115,1.64450729 52.9858898,1.74641162 52.9858898,1.89553992 C52.9858898,1.97010406 53.0102828,2.05958104 53.0590686,2.1589999 L53.2810443,2.38517782 L64.8945176,15.8763175 L64.9676964,2.38517782 C64.9676964,2.10929047 64.9067141,1.89553992 64.7847494,1.74641162 C64.6603455,1.56994314 64.4286127,1.48046617 64.0797938,1.48046617 L64.0797938,1.03059581 L68.5193068,1.03059581 L68.5193068,1.48046617 C68.1729272,1.48046617 67.9387551,1.56994314 67.8167904,1.74641162 C67.6923865,1.89553992 67.6314042,2.10929047 67.6314042,2.38517782 L67.6314042,19.4926786 C67.6314042,19.7710514 67.6923865,19.9972293 67.8167904,20.1736978 C67.9387551,20.3228261 68.1729272,20.3973902 68.5193068,20.3973902 L68.5193068,20.8497461 L63.7846393,20.8497461 L63.7846393,20.3973902 C64.2773765,20.3973902 64.5261844,20.2979714 64.5261844,20.0966482 C64.5261844,19.9201797 64.4749592,19.7834788 64.3773875,19.6815744 L64.1554119,19.3808324 L50.988109,4.12252244 L50.988109,19.4926786 C50.988109,19.7710514 51.0515306,19.9972293 51.1734952,20.1736978 C51.2978992,20.3228261 51.5320713,20.3973902 51.8760116,20.3973902 L51.8760116,20.8497461 L47.4389379,20.8497461 L47.4389379,20.3973902 C47.7828782,20.3973902 48.0170503,20.3228261 48.1414542,20.1736978 C48.2682974,19.9972293 48.3268405,19.7710514 48.3268405,19.4926786 L48.3268405,2.38517782 C48.3268405,2.10929047 48.2682974,1.89553992 48.1414542,1.74641162 C48.0170503,1.56994314 47.7828782,1.48046617 47.4389379,1.48046617 L47.4389379,1.03059581 L53.6884062,1.03059581 Z M105.323585,1.03059581 C107.783856,1.03059581 109.548566,1.50532088 110.615257,2.45974196 C111.684405,3.38930833 112.217751,4.74886127 112.217751,6.53342986 C112.217751,8.1117043 111.809754,9.36686744 110.988844,10.2964338 C110.167935,11.2260002 108.828426,11.8175424 106.965404,12.068575 L111.662285,19.415629 C111.932645,19.8182754 112.144016,20.0842208 112.293943,20.2084944 C112.46599,20.332768 112.738807,20.3998757 113.112395,20.3998757 L113.112395,20.397447 C113.260182,20.397447 113.38132,20.3875063 113.480652,20.3626547 C113.60179,20.335318 113.713236,20.2632483 113.810146,20.13402 C113.909479,20.009762 114.018502,19.8358008 114.142062,19.6071661 L114.619344,18.6280131 L121.267362,3.40640868 L121.708303,2.46701824 C121.805212,2.24086869 121.853667,2.06193717 121.853667,1.93767918 C121.853667,1.63697483 121.633197,1.48289492 121.19468,1.48289492 L121.19468,1.03059581 L126.55622,1.03059581 L126.55622,1.48289492 C126.163735,1.48289492 125.967492,1.63697483 125.967492,1.93767918 C125.967492,2.08678877 126.030484,2.28808673 126.151621,2.54157304 C126.275181,2.76772259 126.43266,3.09327854 126.628902,3.51824088 L133.68152,18.5161809 L134.195142,19.5698887 C134.318703,19.8208899 134.427726,20.009762 134.527059,20.13402 C134.650619,20.2632483 134.771756,20.335318 134.892894,20.3626547 C135.016454,20.3875063 135.188469,20.397447 135.408939,20.397447 L135.408939,20.8497461 L130.301787,20.8497461 L130.301787,20.397447 C130.597363,20.397447 130.791182,20.3626547 130.890515,20.2856148 C130.987425,20.1837232 131.038303,20.0495246 131.038303,19.8705931 C131.038303,19.7463351 131.001961,19.6220771 130.926856,19.4928488 C130.878401,19.3462243 130.757264,19.0430348 130.558599,18.5907357 L129.163096,15.5762367 L118.76951,15.5762367 L117.519372,18.5907357 L117.189879,19.3462243 C117.066319,19.6220771 117.00575,19.8358008 117.00575,19.9824253 C117.00575,20.2632483 117.214106,20.397447 117.630819,20.397447 L117.630819,20.8497461 L107.746989,20.8497461 L107.746989,20.3998757 C108.07142,20.3998757 108.268045,20.3725355 108.344237,20.3203406 C108.44255,20.2706312 108.491706,20.1861252 108.491706,20.0568806 C108.491706,19.9077523 108.430261,19.7710514 108.304912,19.6418069 L103.723548,12.2574709 L96.8662496,12.2574709 L96.8662496,19.4926786 C96.8662496,19.7710514 96.9276949,19.9972293 97.0530434,20.1712123 C97.175934,20.3203406 97.4118841,20.3998757 97.7608936,20.3998757 L97.7608936,20.8497461 L92.8428094,20.8497461 L92.8428094,20.3998757 C93.189361,20.3998757 93.4277689,20.3203406 93.5506596,20.1712123 C93.6735502,19.9972293 93.7374534,19.7710514 93.7374534,19.4926786 L93.7374534,2.38766329 C93.7374534,2.106805 93.6735502,1.89553992 93.5506596,1.74641162 C93.4277689,1.56745767 93.189361,1.48046617 92.8428094,1.48046617 L92.8428094,1.03059581 L105.323585,1.03059581 Z M81.2592837,1.03059581 C82.7917041,1.03059581 84.1696566,1.28159696 85.3833336,1.78359926 C86.6239812,2.26074997 87.6635752,2.93919862 88.5070194,3.81894523 C89.3749824,4.69620668 90.0443436,5.75239964 90.5151032,6.98255379 C90.9858627,8.18785634 91.2212425,9.50747625 91.2212425,10.9389284 C91.2212425,12.3703805 91.0226408,13.7024262 90.6254375,14.9325803 C90.2306859,16.140368 89.6348809,17.18165 88.8404741,18.0613967 C88.073038,18.9386581 87.1070001,19.6320177 85.9423606,20.13402 C84.8022398,20.6111707 83.4757766,20.8497461 81.965423,20.8497461 L69.7354819,20.8497461 L69.7354819,20.397447 C70.081196,20.397447 70.3165757,20.320407 70.4391694,20.1712974 C70.5642149,19.9948511 70.6279636,19.7687015 70.6279636,19.4928488 L70.6279636,2.38749312 C70.6279636,2.10915521 70.5642149,1.89791662 70.4391694,1.74632187 C70.3165757,1.56987551 70.081196,1.48289492 69.7354819,1.48289492 L69.7354819,1.03059581 L81.2592837,1.03059581 Z M189.013353,0.61769685 C190.072883,0.61769685 190.983834,0.692528742 191.746208,0.844686922 C192.532939,0.996845103 193.210063,1.15898087 193.777581,1.33608301 C194.342664,1.51318516 194.810318,1.67282653 195.180544,1.8274791 C195.55077,1.97714289 195.857669,2.05446918 196.103674,2.05446918 C196.374037,2.05446918 196.571328,2.00458125 196.693113,1.90480539 C196.817334,1.80253514 196.941555,1.68779291 197.065775,1.56057869 L197.506637,1.75264721 L195.475264,6.10038014 L195.068502,5.83597412 C195.095295,5.76114223 195.107473,5.59651207 195.107473,5.34457803 C195.107473,5.16997028 194.958895,4.9529578 194.664176,4.70102376 C194.367021,4.44908972 193.950516,4.20962767 193.409791,3.9826376 C192.86663,3.73070356 192.213862,3.53115185 191.451488,3.37899367 C190.711036,3.20189152 189.899948,3.11458765 189.013353,3.11458765 C187.020951,3.11458765 185.43044,3.43885918 184.249125,4.09737983 C183.092168,4.75340608 182.514908,5.60898405 182.514908,6.66910252 C182.514908,7.14802663 182.639128,7.53715247 182.882698,7.84146883 C183.155496,8.11585243 183.511109,8.3453369 183.954406,8.51994465 C184.42206,8.67210283 184.950607,8.77437308 185.542482,8.82426101 C186.156278,8.87414894 186.811481,8.8990929 187.498348,8.8990929 C188.657741,8.8990929 189.863412,8.92403687 191.117798,8.97641919 C192.374618,9.00136316 193.531576,9.18844289 194.588669,9.54264718 C195.648198,9.89685147 196.522614,10.4630794 197.211917,11.2438255 C197.90122,12.027066 198.244654,13.1719939 198.244654,14.6860926 C198.244654,15.4892882 198.035184,16.2750231 197.618679,17.0308252 C197.224096,17.7616833 196.620042,18.4177096 195.808955,18.9964095 C194.995431,19.5776039 193.987051,20.031584 192.778945,20.35835 C191.59763,20.6826215 190.219025,20.8497461 188.643127,20.8497461 C187.318107,20.8497461 186.156278,20.7474758 185.172256,20.5479241 C184.21259,20.320934 183.386888,20.0665056 182.700021,19.792122 C182.008282,19.4878056 181.4432,19.2233996 180.999903,18.9964095 C180.556605,18.7444755 180.203429,18.6197557 179.928195,18.6197557 C179.682189,18.6197557 179.424005,18.7694195 179.153642,19.0737358 L178.785852,18.8467458 L180.778254,14.4965184 L181.258087,14.7584301 C181.185016,14.9380266 181.14848,15.1026568 181.14848,15.2523205 C181.14848,15.6065248 181.35795,15.9707067 181.774455,16.349855 C182.217752,16.7290032 182.78527,17.0807131 183.474573,17.407479 C184.188233,17.7117954 184.989578,17.9637294 185.873737,18.1657755 C186.760331,18.3678216 187.659105,18.4675975 188.570056,18.4675975 C190.908327,18.4675975 192.598703,18.1158876 193.629004,17.407479 C194.688533,16.7040592 195.21708,15.796099 195.21708,14.6860926 C195.21708,14.1572805 195.08068,13.7157724 194.810318,13.3615681 C194.564312,13.0098582 194.211136,12.7454522 193.741046,12.56835 C193.300184,12.3663039 192.766766,12.2266177 192.15297,12.1517858 C191.561095,12.0769539 190.920506,12.0370436 190.231203,12.0370436 L186.61419,12.0370436 C185.357369,12.014594 184.200411,11.8474695 183.140882,11.5456475 C182.083789,11.2188816 181.209373,10.6900695 180.522505,9.95921138 C179.830767,9.22835323 179.484898,8.14329079 179.484898,6.70651847 C179.484898,5.79855818 179.733339,4.98039616 180.22535,4.24953801 C180.719797,3.4912415 181.382307,2.85018163 182.217752,2.3188752 C183.07999,1.79006316 184.088369,1.37349896 185.247762,1.07167699 C186.407155,0.767360634 187.659105,0.61769685 189.013353,0.61769685 Z M6.21645438,1.03059581 L6.21645438,1.48283821 C5.65426218,1.48283821 5.37074285,1.6468382 5.37074285,1.97235333 C5.37074285,2.12641393 5.42163093,2.26556543 5.51856062,2.387323 L11.5063921,14.4462919 L17.7147387,2.387323 L17.7898592,2.1612018 C17.838324,2.08665635 17.8625564,2.0121109 17.8625564,1.93756545 C17.8625564,1.81332304 17.7898592,1.71144425 17.6420414,1.6368988 C17.5208793,1.53502002 17.288248,1.48283821 16.9441476,1.48283821 L16.9441476,1.03059581 L23.520827,1.03059581 L23.520827,1.48283821 C23.1040293,1.48283821 22.8229332,1.57229275 22.6751155,1.74871698 C22.5515301,1.89780788 22.4909491,2.11398968 22.4909491,2.387323 L22.4909491,19.490534 C22.4909491,19.768837 22.5515301,19.9924734 22.6751155,20.1713825 C22.8229332,20.3204734 23.1040293,20.3950188 23.520827,20.3950188 L23.520827,20.8497461 L18.3762838,20.8497461 L18.3762838,20.3950188 C18.7930814,20.3950188 19.0620613,20.3204734 19.1856467,20.1713825 C19.3310412,19.9924734 19.4061617,19.768837 19.4061617,19.490534 L19.4061617,4.6137471 L11.4700435,20.4720491 L3.64539439,4.5367168 L3.60662252,19.490534 C3.58239009,19.768837 3.63327818,19.9924734 3.75444029,20.1713825 C3.87802564,20.3204734 4.1106569,20.3950188 4.45233405,20.3950188 L4.45233405,20.8497461 L0.0808051005,20.8497461 L0.0808051005,20.3950188 C0.473370339,20.3950188 0.730234013,20.3204734 0.851396123,20.1713825 C0.974981476,19.9924734 1.03556253,19.768837 1.03556253,19.490534 L1.03556253,2.387323 C1.03556253,2.11398968 0.962865265,1.89780788 0.81504749,1.74871698 C0.69388538,1.57229275 0.424905494,1.48283821 0.00810783419,1.48283821 L0.00810783419,1.03059581 L6.21645438,1.03059581 Z M208.878703,0.61769685 C209.938099,0.61769685 210.848937,0.692528742 211.611215,0.844686922 C212.397848,0.996845103 213.074887,1.15898087 213.642334,1.33608301 C214.207346,1.51318516 214.674941,1.67282653 215.045121,1.8274791 C215.412866,1.97714289 215.722161,2.05446918 215.968136,2.05446918 C216.238465,2.05446918 216.435732,2.00458125 216.557501,1.90480539 C216.681706,1.80253514 216.805912,1.68779291 216.930117,1.56057869 L217.370923,1.75264721 L215.339804,6.10038014 L214.933093,5.83597412 C214.957447,5.76114223 214.97206,5.59651207 214.97206,5.34457803 C214.97206,5.16997028 214.8235,4.9529578 214.528818,4.70102376 C214.2317,4.44908972 213.812812,4.20962767 213.27459,3.9826376 C212.731497,3.73070356 212.078811,3.53115185 211.316532,3.37899367 C210.576172,3.20189152 209.765186,3.11458765 208.878703,3.11458765 C206.88655,3.11458765 205.296237,3.43885918 204.115071,4.09737983 C202.958258,4.75340608 202.38107,5.60898405 202.38107,6.66910252 C202.38107,7.14802663 202.50284,7.53715247 202.748815,7.84146883 C203.021579,8.11585243 203.377146,8.3453369 203.820388,8.51994465 C204.287984,8.67210283 204.816464,8.77437308 205.408265,8.82426101 C206.021985,8.87414894 206.677106,8.8990929 207.366323,8.8990929 C208.5207,8.8990929 209.728655,8.92403687 210.982883,8.97641919 C212.239547,9.00136316 213.396359,9.18844289 214.453321,9.54264718 C215.512717,9.89685147 216.387024,10.4630794 217.07624,11.2438255 C217.765457,12.027066 218.108848,13.1719939 218.108848,14.6860926 C218.108848,15.4892882 217.899404,16.2750231 217.480516,17.0308252 C217.088417,17.7616833 216.48444,18.4177096 215.673453,18.9964095 C214.860031,19.5776039 213.851778,20.031584 212.643822,20.35835 C211.462656,20.6826215 210.084223,20.8497461 208.508523,20.8497461 C207.183668,20.8497461 206.021985,20.7474758 205.038085,20.5479241 C204.07854,20.320934 203.252941,20.0665056 202.56616,19.792122 C201.874508,19.4878056 201.309496,19.2233996 200.866255,18.9964095 C200.423013,18.7444755 200.067445,18.6197557 199.794681,18.6197557 C199.548706,18.6197557 199.290554,18.7694195 199.020226,19.0737358 L198.650046,18.8467458 L200.644634,14.4965184 L201.124406,14.7584301 C201.051345,14.9380266 201.014814,15.1026568 201.014814,15.2523205 C201.014814,15.6065248 201.224258,15.9707067 201.64071,16.349855 C202.083952,16.7290032 202.651399,17.0807131 203.340615,17.407479 C204.054186,17.7117954 204.855431,17.9637294 205.739479,18.1657755 C206.625963,18.3678216 207.524623,18.4675975 208.435461,18.4675975 C210.773439,18.4675975 212.463603,18.1158876 213.493775,17.407479 C214.553172,16.7040592 215.081652,15.796099 215.081652,14.6860926 C215.081652,14.1572805 214.94527,13.7157724 214.674941,13.3615681 C214.428967,13.0098582 214.073399,12.7454522 213.605803,12.56835 C213.164997,12.3663039 212.631645,12.2266177 212.017926,12.1517858 C211.426125,12.0769539 210.785616,12.0370436 210.0964,12.0370436 L206.479839,12.0370436 C205.223175,12.014594 204.066363,11.8474695 203.006966,11.5456475 C201.950005,11.2188816 201.075699,10.6900695 200.388917,9.95921138 C199.697265,9.22835323 199.351439,8.14329079 199.351439,6.70651847 C199.351439,5.79855818 199.599849,4.98039616 200.091799,4.24953801 C200.586184,3.4912415 201.248612,2.85018163 202.083952,2.3188752 C202.946082,1.79006316 203.954335,1.37349896 205.113583,1.07167699 C206.27283,0.767360634 207.524623,0.61769685 208.878703,0.61769685 Z M230.856228,1.00639993 L230.856228,1.4572856 C230.462187,1.4572856 230.267599,1.60840662 230.267599,1.90817127 C230.267599,2.05929229 230.328408,2.25748379 230.452458,2.51017796 C230.574075,2.7331434 230.73461,3.06015938 230.931631,3.48627111 L238.012202,18.4348652 L238.527861,19.4852802 C238.65191,19.7354969 238.761366,19.9237789 238.861093,20.0501259 C238.98271,20.1739956 239.10676,20.2507948 239.228377,20.2755688 C239.352427,20.3003427 239.525124,20.3127297 239.744036,20.3127297 L239.744036,20.7636153 L234.616641,20.7636153 L234.616641,20.3127297 C234.910956,20.3127297 235.110408,20.2755688 235.210135,20.1987696 C235.307429,20.0996738 235.356076,19.9609398 235.356076,19.7875222 C235.356076,19.6611751 235.317158,19.5373054 235.24662,19.4109583 C235.197973,19.2598373 235.073923,18.9600727 234.876903,18.509187 L233.475869,15.5041083 L223.041086,15.5041083 L221.785994,18.509187 L221.455194,19.2598373 C221.331144,19.5373054 221.270335,19.7478839 221.270335,19.8990049 C221.270335,20.1739956 221.479518,20.3127297 221.897882,20.3127297 L221.897882,20.7636153 L217.361549,20.7636153 L217.361549,20.3127297 C217.50749,20.3127297 217.631539,20.3003427 217.728833,20.2755688 C217.852883,20.2507948 217.962339,20.1739956 218.062065,20.0501259 C218.159359,19.9237789 218.271248,19.7478839 218.390433,19.5224411 L218.872038,18.5463479 L225.54884,3.372311 L225.989095,2.43337875 C226.088821,2.20793592 226.137468,2.03451835 226.137468,1.90817127 C226.137468,1.60840662 225.916124,1.4572856 225.473437,1.4572856 L225.473437,1.00639993 L230.856228,1.00639993 Z M167.23341,3.18941954 C164.714206,3.18941954 162.764327,3.87038976 161.378887,5.23233019 C160.022769,6.56683227 159.343488,8.42266319 159.343488,10.7898454 C159.343488,13.159522 160.022769,15.0253305 161.378887,16.3872709 C162.764327,17.7242674 164.714206,18.3902712 167.23341,18.3902712 C169.752614,18.3902712 171.690275,17.7242674 173.048837,16.3872709 C174.431834,15.0253305 175.123332,13.159522 175.123332,10.7898454 C175.123332,8.42266319 174.431834,6.56683227 173.048837,5.23233019 C171.690275,3.87038976 169.752614,3.18941954 167.23341,3.18941954 Z M80.9577033,3.51824088 L73.7491975,3.51824088 L73.7491975,18.362101 L81.6295165,18.362101 C83.8116832,18.362101 85.4470823,17.7333555 86.5381656,16.4783498 C87.6267971,15.223344 88.1735647,13.3768702 88.1735647,10.9389284 C88.1735647,8.50347165 87.5409816,6.65699784 86.2733634,5.40199209 C85.0376195,4.14450118 83.2649156,3.51824088 80.9577033,3.51824088 Z M35.388557,4.19917469 L31.5674692,13.0885917 L39.5391742,13.0885917 L35.388557,4.19917469 Z M123.765215,4.19917469 L119.944542,13.0885917 L127.915381,13.0885917 L123.765215,4.19917469 Z M228.05416,4.16259961 L224.220776,13.0267146 L232.223209,13.0267146 L228.05416,4.16259961 Z M147.81483,3.59063152 L139.838259,3.59063152 L139.838259,9.69494969 L147.999188,9.69494969 C149.515843,9.69494969 150.582663,9.40912046 151.204565,8.82752011 C151.826467,8.25089071 152.136189,7.46051075 152.136189,6.45389477 C152.136189,5.95182951 152.074737,5.5243284 151.949373,5.17636238 C151.826467,4.82093995 151.602779,4.53262525 151.280767,4.30644733 C150.953838,4.05541471 150.50892,3.87894623 149.93618,3.77952736 C149.390479,3.65276831 148.682543,3.59063152 147.81483,3.59063152 Z M104.841853,3.59063152 L96.8662496,3.59063152 L96.8662496,9.69494969 L105.026189,9.69494969 C106.545118,9.69494969 107.609351,9.40912046 108.231178,8.82752011 C108.853005,8.25089071 109.162689,7.46051075 109.162689,6.45389477 C109.162689,5.95182951 109.103702,5.5243284 108.975895,5.17636238 C108.853005,4.82093995 108.629344,4.53262525 108.304912,4.30644733 C107.982939,4.05541471 107.535617,3.87894623 106.965404,3.77952736 C106.417312,3.65276831 105.711919,3.59063152 104.841853,3.59063152 Z" id="logo"></path>
            </g>
        </g>
    </g>
</svg>