<svg xmlns="http://www.w3.org/2000/svg" width="240" height="20" viewBox="0 0 240 20">
  <defs>
    <style>
      .cls-1 {
        fill: #fff;
        fill-rule: evenodd;
      }
    </style>
  </defs>
  <path id="Forma_1" data-name="Forma 1" class="cls-1" d="M99.214,154.412v0.447c-0.393,0-.589.152-0.589,0.449a1.494,1.494,0,0,0,.184.6q0.186,0.334.48,0.965l7.058,14.817,0.514,1.041a3.367,3.367,0,0,0,.333.557,0.728,0.728,0,0,0,.366.226,2.917,2.917,0,0,0,.517.034v0.447h-5.114v-0.447a1.067,1.067,0,0,0,.592-0.11,0.561,0.561,0,0,0,.146-0.41,0.753,0.753,0,0,0-.112-0.374c-0.046-.144-0.172-0.444-0.369-0.891l-1.394-2.978H91.421l-1.254,2.978-0.33.747a1.681,1.681,0,0,0-.184.628c0,0.278.209,0.41,0.626,0.41v0.447H85.757v-0.447a1.6,1.6,0,0,0,.366-0.034,0.57,0.57,0,0,0,.332-0.226,3.42,3.42,0,0,0,.33-0.521l0.48-.967,6.653-15.038,0.442-.928a1.4,1.4,0,0,0,.146-0.523c0-.3-0.221-0.449-0.66-0.449v-0.447h5.368ZM228.409,154a14.2,14.2,0,0,1,4.449.673,9.56,9.56,0,0,1,3.525,1.942,8.418,8.418,0,0,1,2.336,3.139,11.3,11.3,0,0,1,0,8.593,8.4,8.4,0,0,1-2.336,3.137,9.852,9.852,0,0,1-3.525,1.908,16.907,16.907,0,0,1-8.9,0,10.234,10.234,0,0,1-3.561-1.908,8.975,8.975,0,0,1-2.336-3.137,11.733,11.733,0,0,1,0-8.593,9,9,0,0,1,2.336-3.139,9.921,9.921,0,0,1,3.561-1.942A14.2,14.2,0,0,1,228.409,154Zm-18.958.408q3.692,0,5.3,1.412a5.021,5.021,0,0,1,1.6,4.025,5.372,5.372,0,0,1-1.23,3.717,6.357,6.357,0,0,1-4.031,1.751l4.7,7.258a4.233,4.233,0,0,0,.633.783,1.446,1.446,0,0,0,.819.19v0.444h-5.369v-0.444a1.335,1.335,0,0,0,.6-0.079,0.262,0.262,0,0,0,.145-0.26,0.576,0.576,0,0,0-.182-0.41l-4.59-7.3h-6.865v7.147a1.1,1.1,0,0,0,.187.671,0.9,0.9,0,0,0,.708.226v0.444h-4.924v-0.444a0.9,0.9,0,0,0,.707-0.226,1.115,1.115,0,0,0,.187-0.671v-16.9a0.95,0.95,0,0,0-.187-0.634,0.811,0.811,0,0,0-.707-0.262v-0.445h12.5Zm-94.711,0v0.445a0.977,0.977,0,0,0-.552.113,0.3,0.3,0,0,0-.152.3,0.606,0.606,0,0,0,.074.26l0.222,0.223,11.626,13.329,0.073-13.329a0.968,0.968,0,0,0-.183-0.631,0.811,0.811,0,0,0-.7-0.262v-0.445h4.444v0.445a0.806,0.806,0,0,0-.7.262,0.952,0.952,0,0,0-.186.631v16.9a1.125,1.125,0,0,0,.186.673,0.886,0.886,0,0,0,.7.221v0.447h-4.74v-0.447c0.493,0,.742-0.1.742-0.3a0.562,0.562,0,0,0-.149-0.41l-0.222-.3-13.181-15.074v15.184a1.146,1.146,0,0,0,.185.673,0.9,0.9,0,0,0,.7.221v0.447h-4.442v-0.447a0.9,0.9,0,0,0,.7-0.221,1.111,1.111,0,0,0,.185-0.673v-16.9a0.941,0.941,0,0,0-.185-0.631,0.815,0.815,0,0,0-.7-0.262v-0.445h6.257Zm51.691,0q3.694,0,5.3,1.412a5.015,5.015,0,0,1,1.6,4.025,5.367,5.367,0,0,1-1.23,3.717,6.353,6.353,0,0,1-4.028,1.751l4.7,7.258a4.078,4.078,0,0,0,.632.783,1.43,1.43,0,0,0,.82.19v0a1.594,1.594,0,0,0,.368-0.034,0.563,0.563,0,0,0,.33-0.226,3.57,3.57,0,0,0,.333-0.521l0.477-.967,6.656-15.038,0.441-.928a1.448,1.448,0,0,0,.146-0.523c0-.3-0.221-0.449-0.66-0.449v-0.447h5.367v0.447c-0.393,0-.589.152-0.589,0.449a1.5,1.5,0,0,0,.184.6c0.124,0.223.282,0.545,0.478,0.965l7.06,14.817,0.514,1.041a3.171,3.171,0,0,0,.333.557,0.736,0.736,0,0,0,.366.226,2.9,2.9,0,0,0,.517.034v0.447h-5.113v-0.447a1.048,1.048,0,0,0,.589-0.11,0.562,0.562,0,0,0,.148-0.41,0.731,0.731,0,0,0-.111-0.374c-0.049-.144-0.17-0.444-0.369-0.891l-1.4-2.978h-10.4l-1.252,2.978-0.329.747a1.681,1.681,0,0,0-.185.628c0,0.278.209,0.41,0.626,0.41v0.447h-9.9v-0.444a1.331,1.331,0,0,0,.6-0.079,0.262,0.262,0,0,0,.148-0.26,0.574,0.574,0,0,0-.187-0.41l-4.586-7.3h-6.865v7.147a1.108,1.108,0,0,0,.187.671,0.9,0.9,0,0,0,.708.226v0.444h-4.923v-0.444a0.9,0.9,0,0,0,.709-0.226,1.129,1.129,0,0,0,.187-0.671v-16.9a0.961,0.961,0,0,0-.187-0.634,0.815,0.815,0,0,0-.709-0.262v-0.445h12.494Zm-24.09,0a10.851,10.851,0,0,1,4.128.744,8.488,8.488,0,0,1,3.127,2.011,8.911,8.911,0,0,1,2.011,3.125,10.541,10.541,0,0,1,.707,3.909,12.607,12.607,0,0,1-.6,3.945,8.436,8.436,0,0,1-1.787,3.091,7.987,7.987,0,0,1-2.9,2.048,10.38,10.38,0,0,1-3.981.707H130.8v-0.447a0.894,0.894,0,0,0,.7-0.223,1.126,1.126,0,0,0,.189-0.671v-16.9a0.959,0.959,0,0,0-.189-0.634,0.813,0.813,0,0,0-.7-0.26v-0.447h11.537ZM250.213,154a14.3,14.3,0,0,1,2.735.225,19.25,19.25,0,0,1,2.034.485c0.566,0.175,1.034.333,1.405,0.486a2.629,2.629,0,0,0,.924.224,0.946,0.946,0,0,0,.59-0.148,4.77,4.77,0,0,0,.373-0.34l0.441,0.19-2.033,4.295-0.408-.261a1.81,1.81,0,0,0,.039-0.486,1,1,0,0,0-.443-0.636,4.884,4.884,0,0,0-1.256-.709,8.865,8.865,0,0,0-1.961-.6,10.61,10.61,0,0,0-2.44-.261,9.924,9.924,0,0,0-4.77.971,2.879,2.879,0,0,0-1.736,2.541,1.777,1.777,0,0,0,.368,1.158,3.08,3.08,0,0,0,1.073.67,7.19,7.19,0,0,0,1.59.3c0.614,0.049,1.27.074,1.958,0.074q1.742,0,3.623.076a11.8,11.8,0,0,1,3.475.559,5.945,5.945,0,0,1,2.626,1.681,4.955,4.955,0,0,1,1.034,3.4,4.7,4.7,0,0,1-.627,2.316,5.834,5.834,0,0,1-1.811,1.942,9.467,9.467,0,0,1-3.034,1.346,15.919,15.919,0,0,1-4.14.485,14.656,14.656,0,0,1-5.95-1.045q-1.038-.452-1.7-0.786a2.357,2.357,0,0,0-1.073-.372,1.106,1.106,0,0,0-.775.448l-0.368-.224,2-4.3,0.48,0.258a1.3,1.3,0,0,0-.11.488,1.538,1.538,0,0,0,.627,1.084,7.681,7.681,0,0,0,1.7,1.045,14.224,14.224,0,0,0,2.4.749,12.25,12.25,0,0,0,2.7.3,9.305,9.305,0,0,0,5.064-1.048,3.114,3.114,0,0,0,1.59-2.688,2.074,2.074,0,0,0-.407-1.309,2.207,2.207,0,0,0-1.071-.783,5.441,5.441,0,0,0-1.589-.412,15.558,15.558,0,0,0-1.924-.113h-3.621a13.7,13.7,0,0,1-3.477-.486,5.933,5.933,0,0,1-2.622-1.567,4.478,4.478,0,0,1-1.038-3.213,4.208,4.208,0,0,1,.741-2.428,6.446,6.446,0,0,1,2-1.907,11.213,11.213,0,0,1,3.033-1.232A14.97,14.97,0,0,1,250.213,154Zm-183,.408v0.447c-0.563,0-.847.162-0.847,0.484a0.641,0.641,0,0,0,.148.41l5.994,11.913,6.215-11.913,0.075-.224a0.4,0.4,0,0,0,.073-0.221,0.335,0.335,0,0,0-.221-0.3,1.154,1.154,0,0,0-.7-0.152v-0.447h6.584v0.447a1.077,1.077,0,0,0-.847.263,0.96,0.96,0,0,0-.184.631v16.9a1.14,1.14,0,0,0,.184.673,1.211,1.211,0,0,0,.847.221v0.449h-5.15v-0.449a1.067,1.067,0,0,0,.81-0.221,1.02,1.02,0,0,0,.221-0.673v-14.7l-7.945,15.667-7.833-15.743L64.6,172.649a1,1,0,0,0,.148.673,0.885,0.885,0,0,0,.7.221v0.449H61.074v-0.449a1,1,0,0,0,.771-0.221,1.14,1.14,0,0,0,.184-0.673v-16.9a0.856,0.856,0,0,0-.221-0.631A0.947,0.947,0,0,0,61,154.859v-0.447h6.215ZM270.1,154a14.3,14.3,0,0,1,2.735.225,19.226,19.226,0,0,1,2.033.485c0.566,0.175,1.034.333,1.405,0.486a2.624,2.624,0,0,0,.924.224,0.946,0.946,0,0,0,.59-0.148,4.77,4.77,0,0,0,.373-0.34l0.441,0.19-2.033,4.295-0.407-.261a1.951,1.951,0,0,0,.039-0.486,1,1,0,0,0-.444-0.636,4.919,4.919,0,0,0-1.256-.709,8.856,8.856,0,0,0-1.96-.6,10.61,10.61,0,0,0-2.44-.261,9.917,9.917,0,0,0-4.769.971,2.879,2.879,0,0,0-1.736,2.541,1.766,1.766,0,0,0,.368,1.158,3.08,3.08,0,0,0,1.073.67,7.192,7.192,0,0,0,1.589.3c0.615,0.049,1.271.074,1.961,0.074,1.155,0,2.365.024,3.62,0.076a11.791,11.791,0,0,1,3.474.559,5.945,5.945,0,0,1,2.626,1.681,4.955,4.955,0,0,1,1.034,3.4,4.684,4.684,0,0,1-.629,2.316,5.806,5.806,0,0,1-1.809,1.942,9.471,9.471,0,0,1-3.033,1.346,15.93,15.93,0,0,1-4.14.485,14.656,14.656,0,0,1-5.949-1.045q-1.038-.452-1.7-0.786a2.365,2.365,0,0,0-1.072-.372,1.106,1.106,0,0,0-.776.448l-0.37-.224,2-4.3,0.48,0.258a1.3,1.3,0,0,0-.11.488,1.538,1.538,0,0,0,.627,1.084,7.672,7.672,0,0,0,1.7,1.045,14.266,14.266,0,0,0,2.4.749,12.234,12.234,0,0,0,2.7.3,9.31,9.31,0,0,0,5.064-1.048,3.115,3.115,0,0,0,1.589-2.688,2.074,2.074,0,0,0-.407-1.309,2.218,2.218,0,0,0-1.07-.783,5.44,5.44,0,0,0-1.59-.412,15.529,15.529,0,0,0-1.923-.113H267.7a13.708,13.708,0,0,1-3.477-.486,5.926,5.926,0,0,1-2.62-1.567,4.473,4.473,0,0,1-1.039-3.213,4.215,4.215,0,0,1,.741-2.428,6.453,6.453,0,0,1,1.994-1.907,11.24,11.24,0,0,1,3.033-1.232A14.97,14.97,0,0,1,270.1,154Zm22,0.384v0.446c-0.394,0-.589.149-0.589,0.445a1.439,1.439,0,0,0,.185.595c0.122,0.22.282,0.543,0.48,0.964l7.088,14.768,0.516,1.038a3.3,3.3,0,0,0,.334.558,0.756,0.756,0,0,0,.367.223,2.884,2.884,0,0,0,.517.036v0.446h-5.133v-0.446a1.071,1.071,0,0,0,.594-0.112,0.555,0.555,0,0,0,.146-0.406,0.746,0.746,0,0,0-.11-0.372c-0.048-.15-0.173-0.446-0.37-0.891l-1.4-2.969H284.277l-1.256,2.969-0.331.741a1.681,1.681,0,0,0-.185.632c0,0.271.209,0.408,0.628,0.408v0.446h-4.541v-0.446a1.572,1.572,0,0,0,.367-0.036,0.584,0.584,0,0,0,.334-0.223,3.868,3.868,0,0,0,.329-0.521l0.482-.965,6.684-14.99,0.441-.928a1.375,1.375,0,0,0,.148-0.519c0-.3-0.221-0.445-0.665-0.445v-0.446H292.1Zm-63.692,2.157a8.069,8.069,0,0,0-5.861,2.018,7.3,7.3,0,0,0-2.038,5.491,7.431,7.431,0,0,0,2.038,5.529,8.157,8.157,0,0,0,5.861,1.979,8.014,8.014,0,0,0,5.822-1.979,7.352,7.352,0,0,0,2.076-5.529,7.228,7.228,0,0,0-2.076-5.491A7.928,7.928,0,0,0,228.409,156.545Zm-86.37.325h-7.217v14.664h7.889a6.2,6.2,0,0,0,4.914-1.861,8.06,8.06,0,0,0,1.638-5.472,7.315,7.315,0,0,0-1.9-5.47A7.184,7.184,0,0,0,142.039,156.87Zm-45.619.673-3.825,8.782h7.98Zm88.473,0-3.825,8.782h7.98Zm104.4-.037-3.838,8.757h8.012Zm-80.327-.565h-7.985v6.031h8.17a4.709,4.709,0,0,0,3.209-.857,3.019,3.019,0,0,0,.932-2.345,3.7,3.7,0,0,0-.187-1.262,1.727,1.727,0,0,0-.669-0.86,3.072,3.072,0,0,0-1.346-.52A9.832,9.832,0,0,0,208.969,156.941Zm-43.02,0h-7.984v6.031h8.169a4.7,4.7,0,0,0,3.208-.857,3.017,3.017,0,0,0,.933-2.345,3.65,3.65,0,0,0-.187-1.262,1.717,1.717,0,0,0-.672-0.86,3.03,3.03,0,0,0-1.341-.52A9.852,9.852,0,0,0,165.949,156.941Z" transform="translate(-61 -154)"/>
</svg>
