<?xml version="1.0" encoding="UTF-8"?>
<svg width="155px" height="14px" viewBox="0 0 155 14" version="1.1" xmlns="http://www.w3.org/2000/svg" xmlns:xlink="http://www.w3.org/1999/xlink">
    <title>44DBD360-1F2D-46EC-A231-605A3D5B4617</title>
    <defs>
        <rect id="path-1" x="0" y="0" width="375" height="667"></rect>
    </defs>
    <g id="00_Home" stroke="none" stroke-width="1" fill="none" fill-rule="evenodd">
        <g id="00_Menu" transform="translate(-30.000000, -30.000000)">
            <rect fill="#FFFFFF" x="0" y="0" width="375" height="667"></rect>
            <g id="Hero">
                <g id="img">
                    <mask id="mask-2" fill="white">
                        <use xlink:href="#path-1"></use>
                    </mask>
                    <g id="Mask" opacity="0"></g>
                </g>
                <g id="Video" fill="#F9F8F1" opacity="0.9">
                    <rect id="Rectangle" x="0" y="0" width="375" height="667"></rect>
                </g>
            </g>
            <g id="Logo/logo" transform="translate(30.000000, 30.000000)" fill="#311E0B">
                <path d="M24.6578296,0.655833699 L24.6578296,0.943660401 C24.4043221,0.943660401 24.2775684,1.04171126 24.2775684,1.23306857 C24.2775684,1.32795649 24.3182548,1.45605519 24.3964978,1.61736466 C24.4763057,1.76127801 24.5795866,1.96844998 24.7063403,2.23888056 L29.260086,11.7830242 L29.5918365,12.4535655 C29.6732093,12.6132936 29.7420632,12.7334849 29.8062225,12.8125582 C29.8844655,12.8947944 29.9642734,12.9406569 30.0425165,12.958053 C30.1238893,12.9738677 30.2334295,12.9801935 30.3758319,12.9801935 L30.3758319,13.2680202 L27.0771048,13.2680202 L27.0771048,12.9801935 C27.2680179,12.9801935 27.3932067,12.958053 27.4589309,12.9090276 C27.5215253,12.8441875 27.5528226,12.7587884 27.5528226,12.6449229 C27.5528226,12.5658496 27.5277848,12.4867763 27.480839,12.4045401 C27.4511066,12.3112337 27.3697338,12.1182949 27.2429801,11.8304682 L26.343185,9.91215066 L19.6299311,9.91215066 L18.8208979,11.8304682 L18.6080768,12.3112337 C18.5282689,12.4867763 18.4891474,12.6227823 18.4891474,12.7160888 C18.4891474,12.8947944 18.6237254,12.9801935 18.8928815,12.9801935 L18.8928815,13.2680202 L15.9759805,13.2680202 L15.9759805,12.9801935 C16.0698722,12.9801935 16.1481153,12.9738677 16.2122746,12.958053 C16.2905176,12.9406569 16.3640661,12.8947944 16.4266605,12.8125582 C16.4908198,12.7334849 16.5612386,12.6227823 16.6394816,12.4772875 L16.9493241,11.8541902 L21.241738,2.16771462 L21.5265427,1.5699207 C21.590702,1.42600735 21.6204343,1.31214184 21.6204343,1.23306857 C21.6204343,1.04171126 21.478032,0.943660401 21.1947921,0.943660401 L21.1947921,0.655833699 L24.6578296,0.655833699 Z M108.004911,0.393079813 C109.0417,0.393079813 109.998008,0.539115385 110.875412,0.826424497 C111.752817,1.09944752 112.510289,1.51533143 113.149405,2.07725091 C113.802725,2.62329696 114.306128,3.29633046 114.656458,4.0995261 C115.02257,4.90272175 115.204047,5.82496812 115.204047,6.86626524 C115.204047,7.9091497 115.02257,8.83298342 114.656458,9.63459172 C114.306128,10.4362 113.802725,11.1108209 113.149405,11.6552796 C112.510289,12.2013256 111.752817,12.6108602 110.875412,12.8838832 C109.998008,13.1394454 109.0417,13.2680202 108.004911,13.2680202 C106.968121,13.2680202 106.011813,13.1394454 105.134409,12.8838832 C104.257004,12.6108602 103.491642,12.2013256 102.836745,11.6552796 C102.199206,11.1108209 101.697381,10.4362 101.329692,9.63459172 C100.979361,8.83298342 100.804196,7.9091497 100.804196,6.86626524 C100.804196,5.82496812 100.979361,4.90272175 101.329692,4.0995261 C101.697381,3.29633046 102.199206,2.62329696 102.836745,2.07725091 C103.491642,1.51533143 104.257004,1.09944752 105.134409,0.826424497 C106.011813,0.539115385 106.968121,0.393079813 108.004911,0.393079813 Z M95.7749002,0.655833699 C97.3624303,0.655833699 98.5038646,0.95793147 99.1944402,1.56529034 C99.8834283,2.15683257 100.227922,3.02200263 100.227922,4.15763718 C100.227922,5.16199365 99.9643923,5.96073383 99.4341572,6.55227606 C98.9039222,7.14381829 98.0387182,7.52025426 96.8337828,7.68000229 L99.867553,12.3554003 C100.043769,12.6116298 100.180296,12.7808678 100.275548,12.859951 C100.38985,12.9390342 100.566066,12.9817391 100.804196,12.9817391 L100.804196,13.2680202 L97.3402049,13.2680202 L97.3402049,12.9817391 C97.5497589,12.9817391 97.6767613,12.9643408 97.7259748,12.9311259 C97.789476,12.8994926 97.819639,12.845716 97.819639,12.7634695 C97.819639,12.6685697 97.7815383,12.5815782 97.7021618,12.4993317 L94.741418,7.80020873 L90.3122088,7.80020873 L90.3122088,12.4044318 C90.3122088,12.5815782 90.3503095,12.7255096 90.4328611,12.836226 C90.5122376,12.9311259 90.6646405,12.9817391 90.8900698,12.9817391 L90.8900698,13.2680202 L87.7134218,13.2680202 L87.7134218,12.9817391 C87.9372636,12.9817391 88.0896665,12.9311259 88.169043,12.836226 C88.250007,12.7255096 88.2896953,12.5815782 88.2896953,12.4044318 L88.2896953,1.51942209 C88.2896953,1.34069409 88.250007,1.20625267 88.169043,1.11135285 C88.0896665,0.997473063 87.9372636,0.942114833 87.7134218,0.942114833 L87.7134218,0.655833699 L95.7749002,0.655833699 Z M34.6737623,0.655833699 L34.6737623,0.942114833 C34.4988955,0.942114833 34.3791669,0.969003116 34.3177272,1.01487136 C34.2531368,1.04650464 34.2200539,1.11135285 34.2200539,1.20625267 C34.2200539,1.25370259 34.2358076,1.31064248 34.2673152,1.37390903 L34.4106744,1.51784043 L41.9110426,10.1031111 L41.9583039,1.51784043 C41.9583039,1.34227575 41.9189195,1.20625267 41.8401507,1.11135285 C41.7598065,0.999054727 41.6101457,0.942114833 41.3848668,0.942114833 L41.3848668,0.655833699 L44.2520523,0.655833699 L44.2520523,0.942114833 C44.0283488,0.942114833 43.8771127,0.999054727 43.7983438,1.11135285 C43.7179996,1.20625267 43.6786152,1.34227575 43.6786152,1.51784043 L43.6786152,12.4044318 C43.6786152,12.5815782 43.7179996,12.7255096 43.7983438,12.8378077 C43.8771127,12.9327075 44.0283488,12.9801574 44.2520523,12.9801574 L44.2520523,13.2680202 L41.1942462,13.2680202 L41.1942462,12.9801574 C41.5124723,12.9801574 41.6731607,12.9168909 41.6731607,12.7887761 C41.6731607,12.676478 41.6400778,12.5894865 41.5770628,12.5246383 L41.4337035,12.333257 L32.9298204,2.62342337 L32.9298204,12.4044318 C32.9298204,12.5815782 32.9707802,12.7255096 33.049549,12.8378077 C33.1298932,12.9327075 33.2811294,12.9801574 33.5032575,12.9801574 L33.5032575,13.2680202 L30.6376474,13.2680202 L30.6376474,12.9801574 C30.8597755,12.9801574 31.0110116,12.9327075 31.0913558,12.8378077 C31.1732754,12.7255096 31.2110845,12.5815782 31.2110845,12.4044318 L31.2110845,1.51784043 C31.2110845,1.34227575 31.1732754,1.20625267 31.0913558,1.11135285 C31.0110116,0.999054727 30.8597755,0.942114833 30.6376474,0.942114833 L30.6376474,0.655833699 L34.6737623,0.655833699 Z M68.0214819,0.655833699 C69.6104069,0.655833699 70.7501154,0.95793147 71.4390199,1.56529034 C72.1295118,2.15683257 72.4739641,3.02200263 72.4739641,4.15763718 C72.4739641,5.16199365 72.210466,5.96073383 71.6802952,6.55227606 C71.1501245,7.14381829 70.2850254,7.52025426 69.0818234,7.68000229 L72.1152258,12.3554003 C72.2898329,12.6116298 72.426344,12.7808678 72.5231716,12.859951 C72.6342852,12.9390342 72.8104797,12.9817391 73.051755,12.9817391 L73.051755,12.9801935 C73.1472012,12.9801935 73.2254357,12.9738677 73.289588,12.958053 C73.3678226,12.9406569 73.4397984,12.8947944 73.502386,12.8125582 C73.5665384,12.7334849 73.6369494,12.6227823 73.7167487,12.4772875 L74.0249928,11.8541902 L78.3185049,2.16771462 L78.6032787,1.5699207 C78.6658663,1.42600735 78.6971602,1.31214184 78.6971602,1.23306857 C78.6971602,1.04171126 78.5547733,0.943660401 78.2715642,0.943660401 L78.2715642,0.655833699 L81.7342254,0.655833699 L81.7342254,0.943660401 C81.4807455,0.943660401 81.3540055,1.04171126 81.3540055,1.23306857 C81.3540055,1.32795649 81.3946875,1.45605519 81.472922,1.61736466 C81.5527213,1.76127801 81.6544262,1.96844998 81.7811661,2.23888056 L86.3359817,11.7830242 L86.6676962,12.4535655 C86.7474954,12.6132936 86.8179065,12.7334849 86.8820588,12.8125582 C86.9618581,12.8947944 87.0400926,12.9406569 87.1183272,12.958053 C87.1981264,12.9738677 87.3092195,12.9801935 87.4516064,12.9801935 L87.4516064,13.2680202 L84.1532377,13.2680202 L84.1532377,12.9801935 C84.34413,12.9801935 84.4693053,12.958053 84.5334576,12.9090276 C84.5960453,12.8441875 84.6289038,12.7587884 84.6289038,12.6449229 C84.6289038,12.5658496 84.6054334,12.4867763 84.556928,12.4045401 C84.5256342,12.3112337 84.4473996,12.1182949 84.319095,11.8304682 L83.4178329,9.91215066 L76.7053085,9.91215066 L75.897928,11.8304682 L75.68513,12.3112337 C75.6053307,12.4867763 75.5662135,12.6227823 75.5662135,12.7160888 C75.5662135,12.8947944 75.7007769,12.9801935 75.9699037,12.9801935 L75.9699037,13.2680202 L69.5865968,13.2680202 L69.5865968,12.9817391 C69.7961254,12.9817391 69.9231124,12.9643408 69.9723199,12.9311259 C70.0358134,12.8994926 70.0675601,12.845716 70.0675601,12.7634695 C70.0675601,12.6685697 70.0278767,12.5815782 69.9469225,12.4993317 L66.988125,7.80020873 L62.5594529,7.80020873 L62.5594529,12.4044318 C62.5594529,12.5815782 62.5991363,12.7255096 62.6800905,12.836226 C62.7594574,12.9311259 62.9118418,12.9817391 63.1372438,12.9817391 L63.1372438,13.2680202 L59.960981,13.2680202 L59.960981,12.9817391 C60.1847957,12.9817391 60.3387674,12.9311259 60.4181343,12.836226 C60.4975012,12.7255096 60.538772,12.5815782 60.538772,12.4044318 L60.538772,1.51942209 C60.538772,1.34069409 60.4975012,1.20625267 60.4181343,1.11135285 C60.3387674,0.997473063 60.1847957,0.942114833 59.960981,0.942114833 L59.960981,0.655833699 L68.0214819,0.655833699 Z M52.479954,0.655833699 C53.4696422,0.655833699 54.3595699,0.815561704 55.1434029,1.13501771 C55.9446545,1.43865907 56.616059,1.87039912 57.1607834,2.43023787 C57.7213428,2.98849516 58.1536386,3.66061795 58.4576708,4.44344332 C58.761703,5.21045404 58.9137191,6.05021216 58.9137191,6.96113623 C58.9137191,7.8720603 58.7854555,8.71972575 58.5289284,9.50255112 C58.2739847,10.2711433 57.8891939,10.9337773 57.3761395,11.4936161 C56.8805037,12.0518733 56.2566042,12.4931022 55.5044412,12.8125582 C54.7681132,13.1161995 53.9114391,13.2680202 52.9360024,13.2680202 L45.0374987,13.2680202 L45.0374987,12.9801935 C45.2607724,12.9801935 45.4127885,12.9311681 45.4919636,12.8362802 C45.5727221,12.7239961 45.6138931,12.5800828 45.6138931,12.4045401 L45.6138931,1.5193138 C45.6138931,1.34218968 45.5727221,1.20776512 45.4919636,1.11129573 C45.4127885,0.99901169 45.2607724,0.943660401 45.0374987,0.943660401 L45.0374987,0.655833699 L52.479954,0.655833699 Z M122.071124,0.393079813 C122.755403,0.393079813 123.343726,0.440700108 123.836093,0.537528041 C124.34419,0.634355974 124.781499,0.73753328 125.148021,0.850234645 C125.51297,0.96293601 125.814997,1.06452597 126.054101,1.16294125 C126.293206,1.25818184 126.491411,1.30738948 126.65029,1.30738948 C126.824899,1.30738948 126.952316,1.27564261 127.030969,1.21214889 C127.111195,1.14706782 127.191421,1.07405003 127.271647,0.99309553 L127.55637,1.11532095 L126.244441,3.88206009 L125.981741,3.71380171 C125.999044,3.66618142 126.00691,3.56141677 126.00691,3.40109511 C126.00691,3.28998109 125.910953,3.15188223 125.720614,2.99156057 C125.528701,2.83123891 125.259708,2.67885397 124.91049,2.53440574 C124.559698,2.37408408 124.138119,2.24709663 123.645753,2.1502687 C123.167544,2.03756733 122.643716,1.98201032 122.071124,1.98201032 C120.784364,1.98201032 119.757159,2.18836493 118.994227,2.60742353 C118.247025,3.02489478 117.874211,3.56935349 117.874211,4.24397433 C117.874211,4.54874422 117.954437,4.79636975 118.111743,4.99002562 C118.287925,5.16463337 118.517591,5.31066894 118.803887,5.42178296 C119.105914,5.51861089 119.447267,5.58369196 119.82952,5.61543883 C120.22593,5.64718569 120.649082,5.66305912 121.092683,5.66305912 C121.841458,5.66305912 122.620121,5.67893255 123.430244,5.71226676 C124.241941,5.72814019 124.989143,5.84719093 125.671849,6.07259366 C126.356128,6.29799639 126.920855,6.65832329 127.36603,7.1551617 C127.811205,7.65358745 128.033006,8.38217796 128.033006,9.34569526 C128.033006,9.85681976 127.897723,10.3568329 127.62873,10.8377978 C127.373895,11.3028894 126.983777,11.7203606 126.45995,12.0886243 C125.934549,12.4584752 125.283304,12.7473717 124.503068,12.9553136 C123.740136,13.1616682 122.849787,13.2680202 121.83202,13.2680202 C120.976277,13.2680202 120.22593,13.2029392 119.590415,13.0759517 C118.970631,12.9315035 118.437365,12.7695945 117.993763,12.5949867 C117.547015,12.4013309 117.182067,12.2330725 116.89577,12.0886243 C116.609474,11.9283026 116.381381,11.8489354 116.203626,11.8489354 C116.044747,11.8489354 115.878003,11.944176 115.703394,12.1378319 L115.465863,11.9933837 L116.752622,9.22505718 L117.062514,9.39172822 C117.015323,9.50601692 116.991727,9.61078157 116.991727,9.70602216 C116.991727,9.93142489 117.12701,10.163177 117.396002,10.4044532 C117.682298,10.6457293 118.04882,10.8695447 118.493995,11.0774867 C118.9549,11.2711425 119.472436,11.4314642 120.043455,11.560039 C120.616047,11.6886138 121.196505,11.7521075 121.784828,11.7521075 C123.294961,11.7521075 124.386662,11.5282921 125.052065,11.0774867 C125.736344,10.6298559 126.077697,10.052063 126.077697,9.34569526 C126.077697,9.00917851 125.989606,8.72821877 125.814997,8.50281604 C125.656118,8.27900066 125.428025,8.11074228 125.124425,7.99804092 C124.839702,7.86946612 124.495203,7.7805749 124.098793,7.73295461 C123.71654,7.68533431 123.302827,7.65993682 122.857652,7.65993682 L120.521664,7.65993682 C119.709967,7.64565073 118.962766,7.53929874 118.278486,7.34723022 C117.59578,7.13928826 117.031053,6.80277151 116.587451,6.33767997 C116.140704,5.87258842 115.91733,5.18209414 115.91733,4.26778448 C115.91733,3.68999157 116.077781,3.16934301 116.395539,2.70425146 C116.714869,2.22169914 117.14274,1.81375195 117.682298,1.47564785 C118.23916,1.1391311 118.890405,0.874044792 119.63918,0.681976269 C120.387954,0.488320403 121.196505,0.393079813 122.071124,0.393079813 Z M4.01479345,0.655833699 L4.01479345,0.943624315 C3.65171099,0.943624315 3.46860475,1.04798794 3.46860475,1.25513394 C3.46860475,1.3531725 3.50146998,1.44172346 3.5640704,1.51920555 L7.43121158,9.19309486 L11.4407687,1.51920555 L11.489284,1.37531024 C11.5205843,1.32787222 11.5362344,1.28043421 11.5362344,1.2329962 C11.5362344,1.15393284 11.489284,1.08910089 11.3938184,1.04166288 C11.3155679,0.976830924 11.1653269,0.943624315 10.9430954,0.943624315 L10.9430954,0.655833699 L15.1905341,0.655833699 L15.1905341,0.943624315 C14.9213523,0.943624315 14.7398111,1.00054993 14.6443454,1.1128199 C14.5645299,1.20769592 14.5254046,1.34526616 14.5254046,1.51920555 L14.5254046,12.4030671 C14.5254046,12.580169 14.5645299,12.7224831 14.6443454,12.8363343 C14.7398111,12.9312103 14.9213523,12.9786483 15.1905341,12.9786483 L15.1905341,13.2680202 L11.8680166,13.2680202 L11.8680166,12.9786483 C12.1371984,12.9786483 12.3109146,12.9312103 12.3907302,12.8363343 C12.4846308,12.7224831 12.5331461,12.580169 12.5331461,12.4030671 L12.5331461,2.93602088 L7.40773642,13.0276676 L2.35431721,2.8870016 L2.32927704,12.4030671 C2.31362694,12.580169 2.34649216,12.7224831 2.42474269,12.8363343 C2.50455823,12.9312103 2.65479925,12.9786483 2.87546574,12.9786483 L2.87546574,13.2680202 L0.0521866274,13.2680202 L0.0521866274,12.9786483 C0.305718344,12.9786483 0.471609467,12.9312103 0.549859996,12.8363343 C0.629675537,12.7224831 0.668800801,12.580169 0.668800801,12.4030671 L0.668800801,1.51920555 C0.668800801,1.34526616 0.621850484,1.20769592 0.526384837,1.1128199 C0.448134308,1.00054993 0.274418132,0.943624315 0.00523630958,0.943624315 L0.00523630958,0.655833699 L4.01479345,0.655833699 Z M134.900829,0.393079813 C135.585022,0.393079813 136.173272,0.440700108 136.665576,0.537528041 C137.17361,0.634355974 137.610865,0.73753328 137.977341,0.850234645 C138.342244,0.96293601 138.644233,1.06452597 138.883308,1.16294125 C139.120809,1.25818184 139.320562,1.30738948 139.479421,1.30738948 C139.654008,1.30738948 139.78141,1.27564261 139.860053,1.21214889 C139.940269,1.14706782 140.020485,1.07405003 140.1007,0.99309553 L140.385388,1.11532095 L139.073623,3.88206009 L138.810956,3.71380171 C138.826685,3.66618142 138.836122,3.56141677 138.836122,3.40109511 C138.836122,3.28998109 138.740177,3.15188223 138.549861,2.99156057 C138.357973,2.83123891 138.087441,2.67885397 137.739839,2.53440574 C137.389092,2.37408408 136.967565,2.24709663 136.475261,2.1502687 C135.997111,2.03756733 135.473349,1.98201032 134.900829,1.98201032 C133.61423,1.98201032 132.587153,2.18836493 131.824317,2.60742353 C131.077209,3.02489478 130.704441,3.56935349 130.704441,4.24397433 C130.704441,4.54874422 130.783084,4.79636975 130.941943,4.99002562 C131.118103,5.16463337 131.34774,5.31066894 131.634001,5.42178296 C131.93599,5.51861089 132.2773,5.58369196 132.659505,5.61543883 C133.055865,5.64718569 133.478964,5.66305912 133.924083,5.66305912 C134.669618,5.66305912 135.449756,5.67893255 136.259779,5.71226676 C137.071374,5.72814019 137.818482,5.84719093 138.501103,6.07259366 C139.185296,6.29799639 139.749953,6.65832329 140.195072,7.1551617 C140.640191,7.65358745 140.861964,8.38217796 140.861964,9.34569526 C140.861964,9.85681976 140.726698,10.3568329 140.456167,10.8377978 C140.202936,11.3028894 139.812867,11.7203606 139.289105,12.0886243 C138.76377,12.4584752 138.112607,12.7473717 137.332469,12.9553136 C136.569632,13.1616682 135.679394,13.2680202 134.661754,13.2680202 C133.806119,13.2680202 133.055865,13.2029392 132.42043,13.0759517 C131.800724,12.9315035 131.267525,12.7695945 130.823978,12.5949867 C130.377286,12.4013309 130.012383,12.2330725 129.726123,12.0886243 C129.439862,11.9283026 129.210225,11.8489354 129.034065,11.8489354 C128.875206,11.8489354 128.708483,11.944176 128.533896,12.1378319 L128.294821,11.9933837 L129.582993,9.22505718 L129.892846,9.39172822 C129.84566,9.50601692 129.822067,9.61078157 129.822067,9.70602216 C129.822067,9.93142489 129.957333,10.163177 130.226292,10.4044532 C130.512552,10.6457293 130.879028,10.8695447 131.324147,11.0774867 C131.784995,11.2711425 132.302466,11.4314642 132.873414,11.560039 C133.445934,11.6886138 134.026319,11.7521075 134.614568,11.7521075 C136.124513,11.7521075 137.216077,11.5282921 137.881396,11.0774867 C138.56559,10.6298559 138.9069,10.052063 138.9069,9.34569526 C138.9069,9.00917851 138.81882,8.72821877 138.644233,8.50281604 C138.485374,8.27900066 138.255737,8.11074228 137.953748,7.99804092 C137.66906,7.86946612 137.324604,7.7805749 136.928244,7.73295461 C136.546039,7.68533431 136.132377,7.65993682 135.687258,7.65993682 L133.351563,7.65993682 C132.539967,7.64565073 131.792859,7.53929874 131.108666,7.34723022 C130.426045,7.13928826 129.861389,6.80277151 129.417842,6.33767997 C128.97115,5.87258842 128.747804,5.18209414 128.747804,4.26778448 C128.747804,3.68999157 128.908236,3.16934301 129.225954,2.70425146 C129.545244,2.22169914 129.973062,1.81375195 130.512552,1.47564785 C131.069344,1.1391311 131.720508,0.874044792 132.469189,0.681976269 C133.21787,0.488320403 134.026319,0.393079813 134.900829,0.393079813 Z M149.094647,0.640436322 L149.094647,0.927363565 C148.840162,0.927363565 148.714491,1.02353149 148.714491,1.21429081 C148.714491,1.31045873 148.753763,1.4365806 148.833879,1.59738597 C148.912424,1.73927307 149.016102,1.94737415 149.143345,2.21853616 L153.716214,11.7312778 L154.049243,12.3997237 C154.129359,12.5589526 154.200049,12.6787684 154.264456,12.759171 C154.343,12.8379972 154.423116,12.8868694 154.50166,12.9026347 C154.581776,12.9183999 154.693309,12.9262825 154.83469,12.9262825 L154.83469,13.2132098 L151.523248,13.2132098 L151.523248,12.9262825 C151.713326,12.9262825 151.842139,12.9026347 151.906545,12.8537624 C151.969381,12.7907015 152.000799,12.7024162 152.000799,12.5920596 C152.000799,12.5116569 151.975665,12.4328307 151.930109,12.352428 C151.898691,12.2562601 151.818575,12.0655008 151.691333,11.7785735 L150.786499,9.86625076 L144.047368,9.86625076 L143.236788,11.7785735 L143.023146,12.2562601 C142.943031,12.4328307 142.903758,12.5668352 142.903758,12.6630031 C142.903758,12.8379972 143.038855,12.9262825 143.309049,12.9262825 L143.309049,13.2132098 L140.379333,13.2132098 L140.379333,12.9262825 C140.473587,12.9262825 140.553703,12.9183999 140.616538,12.9026347 C140.696654,12.8868694 140.767344,12.8379972 140.831751,12.759171 C140.894586,12.6787684 140.966847,12.5668352 141.043821,12.4233716 L141.354858,11.8022214 L145.666959,2.14601609 L145.95129,1.54851375 C146.015697,1.40505013 146.047115,1.2946935 146.047115,1.21429081 C146.047115,1.02353149 145.904164,0.927363565 145.618261,0.927363565 L145.618261,0.640436322 L149.094647,0.640436322 Z M108.004911,2.02963062 C106.377925,2.02963062 105.118628,2.4629753 104.223865,3.32966467 C103.348038,4.17889326 102.909336,5.35987658 102.909336,6.86626524 C102.909336,8.37424125 103.348038,9.56157393 104.223865,10.4282633 C105.118628,11.2790792 106.377925,11.7028999 108.004911,11.7028999 C109.631896,11.7028999 110.883303,11.2790792 111.760707,10.4282633 C112.653893,9.56157393 113.100485,8.37424125 113.100485,6.86626524 C113.100485,5.35987658 112.653893,4.17889326 111.760707,3.32966467 C110.883303,2.4629753 109.631896,2.02963062 108.004911,2.02963062 Z M52.2851834,2.23888056 L47.6296901,2.23888056 L47.6296901,11.6849734 L52.7190627,11.6849734 C54.1283787,11.6849734 55.184574,11.2848626 55.889232,10.4862226 C56.5923065,9.68758257 56.9454272,8.51255378 56.9454272,6.96113623 C56.9454272,5.41130014 56.5368839,4.23627135 55.7182139,3.43763133 C54.9201293,2.63740984 53.775258,2.23888056 52.2851834,2.23888056 Z M22.8551097,2.67220208 L20.3873238,8.3291038 L25.5357167,8.3291038 L22.8551097,2.67220208 Z M79.9317014,2.67220208 L77.4641837,8.3291038 L82.6120171,8.3291038 L79.9317014,2.67220208 Z M147.284979,2.64892703 L144.809251,8.28972745 L149.977489,8.28972745 L147.284979,2.64892703 Z M95.4637442,2.28494733 L90.3122088,2.28494733 L90.3122088,6.16951344 L95.582809,6.16951344 C96.5623151,6.16951344 97.2513032,5.98762211 97.6529484,5.6175128 C98.0545935,5.25056681 98.2546223,4.74759775 98.2546223,4.10702394 C98.2546223,3.78752787 98.2149341,3.51548171 98.13397,3.29404879 C98.0545935,3.06787088 97.9101283,2.88439788 97.7021618,2.74046649 C97.4910203,2.58071845 97.2036773,2.46842033 96.8337828,2.40515378 C96.4813511,2.32448893 96.0241424,2.28494733 95.4637442,2.28494733 Z M67.7103637,2.28494733 L62.5594529,2.28494733 L62.5594529,6.16951344 L67.829414,6.16951344 C68.8103887,6.16951344 69.4977059,5.98762211 69.8993023,5.6175128 C70.3008988,5.25056681 70.5009033,4.74759775 70.5009033,4.10702394 C70.5009033,3.78752787 70.4628072,3.51548171 70.3802657,3.29404879 C70.3008988,3.06787088 70.1564511,2.88439788 69.9469225,2.74046649 C69.7389812,2.58071845 69.4500858,2.46842033 69.0818234,2.40515378 C68.7278471,2.32448893 68.2722812,2.28494733 67.7103637,2.28494733 Z" id="logo"></path>
            </g>
        </g>
    </g>
</svg>