<?xml version="1.0" encoding="UTF-8"?>
<svg width="23px" height="26px" viewBox="0 0 23 26" version="1.1" xmlns="http://www.w3.org/2000/svg" xmlns:xlink="http://www.w3.org/1999/xlink">
    <title>CBB41674-CDBC-4CB7-8731-8DC63CB8F705</title>
    <g id="00_Home" stroke="none" stroke-width="1" fill="none" fill-rule="evenodd">
        <g transform="translate(-248.000000, -3928.000000)" fill="#FFFFFF" id="Mobile/Footer">
            <g transform="translate(-1.000000, 3504.000000)">
                <g id="Group-3" transform="translate(0.000000, 63.000000)">
                    <g id="social" transform="translate(103.000000, 361.000000)">
                        <g id="Shape" transform="translate(146.000000, 0.000000)">
                            <path d="M5.14939834,18.7378708 L5.16676808,14.5245863 L5.95833229,14.5163298 L6.74906937,14.5064221 L6.73997093,13.8574623 L6.73004536,13.2076769 L4.44551,13.1985948 L2.1626289,13.1895127 L2.1626289,13.8483802 L2.1626289,14.5064221 L2.9351691,14.5163298 L3.7077093,14.5245863 L3.71680773,18.7031935 C3.72094339,21.0009734 3.73252322,22.9016163 3.74162166,22.9255601 C3.75402862,22.9594117 3.914492,22.9676682 4.44468287,22.9602373 L5.13202859,22.9511552 L5.14939834,18.7378708 Z M18.3264196,18.4414629 C18.2941615,18.3572468 18.3388266,17.3838072 18.3818374,17.2426213 C18.4819202,16.9107106 18.6944929,16.7488835 19.0294808,16.7488835 C19.3082239,16.7488835 19.4852299,16.8562178 19.6043368,17.0973071 C19.6796057,17.2500521 19.6870499,17.3152784 19.6986297,17.8800219 L19.7102095,18.4951301 L19.0278266,18.4951301 C18.4413908,18.4951301 18.3437894,18.4876993 18.3264196,18.4414629 L18.3264196,18.4414629 Z M19.6002011,22.9808786 C20.2685228,22.7934563 20.730889,22.3376983 20.9054136,21.6945181 C20.9343631,21.5847069 20.9682755,21.2717861 20.9798553,21.0001477 L20.9997065,20.5064099 L20.3561987,20.5064099 L19.7118638,20.5064099 L19.6961483,20.9489575 C19.6779514,21.4517775 19.6258422,21.624338 19.4422191,21.7853395 C19.2470162,21.9562487 18.8880415,21.9686335 18.6547906,21.8117602 C18.3768746,21.624338 18.3082228,21.3081146 18.322284,20.2810079 L18.3322095,19.5527859 L19.6647173,19.5445294 L20.9972251,19.5346216 L20.9798553,18.4513707 C20.9583499,17.2426213 20.933536,17.0593273 20.7300618,16.6299901 C20.3421375,15.8167263 19.2676945,15.406379 18.3752203,15.7308588 C17.7019359,15.9760764 17.3040859,16.4177984 17.1444497,17.1014354 C17.0882048,17.3425248 17.0815877,17.5588447 17.0815877,19.3273838 C17.0815877,21.4963625 17.0890319,21.5847069 17.310703,22.0289058 C17.7068986,22.8190514 18.6986285,23.2318757 19.6002011,22.9808786 L19.6002011,22.9808786 Z M14.3239335,21.7457084 C14.4058195,21.6903899 14.459583,21.6136046 14.5017667,21.4938856 C14.5555302,21.3361867 14.5604929,21.1355541 14.5530488,19.275368 C14.5456046,17.3367452 14.5414689,17.2228057 14.478607,17.0956558 C14.3173165,16.771176 13.9111952,16.7398013 13.5389864,17.0238244 L13.416571,17.1162971 L13.416571,19.3273838 L13.416571,21.5384706 L13.5381592,21.6309432 C13.8135938,21.8406579 14.1154966,21.8844173 14.3239335,21.7457084 L14.3239335,21.7457084 Z M15.1303861,22.9940889 C15.3330331,22.9354679 15.5778639,22.6952042 15.6878723,22.4499865 C15.8996178,21.9801925 15.9004449,21.9686335 15.9004449,19.3273838 C15.9004449,17.1592308 15.8938279,16.8917207 15.8400643,16.6572365 C15.6655397,15.906722 15.2850596,15.5789395 14.6448603,15.6268271 C14.2867126,15.6548992 14.004661,15.7969107 13.6663645,16.1230419 C13.5191352,16.2642278 13.3876214,16.3806442 13.3727331,16.3806442 C13.359499,16.3806442 13.347092,15.66233 13.347092,14.7854913 L13.347092,13.1903383 L12.7217811,13.1903383 L12.0964702,13.1903383 L12.0964702,18.0790032 L12.0964702,22.9684938 L12.7217811,22.9684938 L13.347092,22.9684938 L13.347092,22.6390601 C13.347092,22.4202632 13.3603261,22.3096263 13.3859672,22.3096263 C13.4066454,22.3096263 13.5472577,22.4252171 13.6986226,22.5672286 C14.1849756,23.0238123 14.6059851,23.1493109 15.1303861,22.9940889 L15.1303861,22.9940889 Z M8.47446428,22.9618886 C8.7242578,22.869416 9.01788924,22.6663065 9.26520136,22.4153093 C9.37851828,22.2997185 9.49183521,22.2055946 9.51664913,22.2055946 C9.54973437,22.2055946 9.5613142,22.2997185 9.5613142,22.5870442 L9.5613142,22.9684938 L10.1866251,22.9684938 L10.811936,22.9684938 L10.811936,19.3447224 L10.811936,15.7217767 L10.1866251,15.7217767 L9.5613142,15.7217767 L9.5613142,18.516597 L9.5613142,21.3122429 L9.29166955,21.5789274 C9.07826979,21.791119 8.98893966,21.8555196 8.85659873,21.8918481 C8.6332734,21.9537718 8.4910069,21.9108381 8.39919538,21.7531392 C8.32971639,21.6358971 8.32806213,21.5814043 8.31813656,18.6775984 L8.30903812,15.7217767 L7.68372721,15.7217767 L7.06007056,15.7217767 L7.06007056,18.8600667 C7.06007056,22.2790773 7.06337908,22.3533857 7.25527344,22.6828194 C7.46536467,23.0428022 7.95668038,23.155916 8.47446428,22.9618886 L8.47446428,22.9618886 Z M14.4761256,10.7588034 L14.7608092,10.7653495 L14.7608092,10.7653495 L15.3325046,10.7798973 C17.5243279,10.8391392 19.6767425,10.9364766 20.3016081,11.0073236 C21.2155876,11.1113553 21.8574412,11.5836263 22.3016104,12.4794549 C22.6374255,13.1556611 22.7441254,13.6824248 22.880602,15.3056498 C22.9873019,16.5903589 23.0137701,17.391238 22.9939189,18.8749284 C22.9715864,20.6500728 22.8582695,22.2138511 22.6887076,23.0915155 C22.5100474,24.0195444 22.0882107,24.8105157 21.5414772,25.2390273 C21.1204676,25.5701123 20.6713355,25.7179034 19.9641387,25.7575345 C19.7540474,25.7699193 19.4885385,25.7864322 19.3735673,25.7955144 C19.1293982,25.8143392 18.246221,25.8533758 17.3202249,25.8889051 L16.8564187,25.9062677 C16.3945646,25.9231184 15.9468469,25.9381039 15.5877894,25.9482594 C13.8094582,25.9977983 10.697792,26.0151369 9.00548228,25.9854135 C8.1932398,25.9713775 7.23211377,25.949085 6.86900334,25.9358746 C4.43144877,25.8483559 2.7581631,25.7550576 2.42400224,25.6873544 C1.94757488,25.5915792 1.41490263,25.2695763 1.1055557,24.8906036 C0.610931458,24.2837519 0.346249592,23.5472734 0.218044313,22.413658 C-0.0788956559,19.7781879 -0.0722786092,16.7042984 0.236241191,14.161301 C0.371890648,13.0466755 0.708532897,12.2416682 1.27346326,11.6802272 C1.59604428,11.3590499 1.90621834,11.1807098 2.31895663,11.0750268 C2.92828807,10.919313 6.36881684,10.7854151 9.84726372,10.7455157 L10.4992349,10.7391537 C10.8247607,10.7365411 11.1490854,10.7347943 11.4699074,10.7339728 L12.1061991,10.7335811 C12.9465424,10.7347508 13.7510662,10.7427823 14.4761256,10.7588034 Z M9.39827606,0.00115085242 L10.1054729,0.00527909506 L10.0897574,0.118392943 C10.0773505,0.21003993 9.59430607,1.82831104 9.08892913,3.47217726 C9.05480998,3.58570393 8.98676555,3.81114469 8.91205722,4.0598068 L8.82095328,4.36367126 C8.80581775,4.41428093 8.79085185,4.46440038 8.77627367,4.51332006 C8.65964823,4.90385181 8.51903598,5.36786628 8.46279109,5.54455507 L8.361054,5.86655799 L8.361054,7.87453521 C8.361054,8.01940477 8.36102952,8.153878 8.36095875,8.27870388 L8.36025397,8.77782857 C8.35753624,9.80230361 8.34610201,9.88702174 8.30067344,9.8990254 C8.1732953,9.93370264 6.83334335,9.91718967 6.81101082,9.88086113 C6.79935906,9.86179942 6.79302658,9.41340672 6.79141868,8.85040922 L6.79136362,8.26086666 C6.7931673,7.52211752 6.80173256,6.76888414 6.8159736,6.57579008 C6.85484875,6.05810845 6.76717288,5.65023808 6.39496401,4.60826964 C6.2742029,4.27057939 6.05584036,3.61501446 5.91026534,3.15265128 C4.99231978,0.238196662 4.91675341,0.0132695923 4.97932692,0.00295251413 L4.99165993,0.00285588991 C4.99840009,0.00341772175 5.00589321,0.00451695796 5.01365552,0.00445344653 C5.70761828,-0.00132609316 6.5636987,0.00280214948 6.57362427,0.0127099318 C6.57982775,0.0189022958 6.77795143,0.736248958 7.02419147,1.64294952 L7.07403842,1.82665975 C7.34368307,2.81743798 7.56783553,3.64226086 7.57362544,3.66042513 C7.57858823,3.6769381 7.73657022,3.09980978 7.92432892,2.37736731 C8.31721606,0.861476618 8.53805999,0.0250946597 8.5463313,0.017663823 C8.55646365,0.00803125682 8.62710867,0.0028938882 8.81113283,0.000940617842 L9.24753242,0.000466634428 C9.29479855,0.000646289432 9.34499505,0.000875636245 9.39827606,0.00115085242 Z M15.9508065,10.0014058 C15.6017573,9.9551695 15.397456,9.82058879 15.2576709,9.54399653 C15.0823191,9.19722415 15.0823191,9.19887545 15.0823191,5.74353636 L15.0823191,2.51937886 L15.7870346,2.51937886 L16.4909229,2.51937886 L16.5058113,5.49171356 C16.5215268,8.7199993 16.5173911,8.64486529 16.7109398,8.69357855 C16.8887729,8.73733792 17.08563,8.64238834 17.3304607,8.39304249 L17.5653659,8.15443006 L17.5744643,5.33649164 L17.5827356,2.51937886 L18.286624,2.50947108 L18.9905123,2.50121459 L18.9905123,6.19103786 L18.9905123,9.88168678 L18.8945651,9.90150235 C18.779594,9.92544615 17.7125952,9.92379486 17.6265736,9.8990254 C17.5744643,9.88498938 17.566193,9.83710176 17.566193,9.54812478 L17.566193,9.21291147 L17.3660274,9.40776453 C16.9061426,9.85444038 16.4098641,10.0625038 15.9508065,10.0014058 L15.9508065,10.0014058 Z M12.4040695,8.59202378 C12.6455917,8.40872981 12.647246,8.39304249 12.6596529,6.31818774 C12.6704056,4.70569616 12.6646157,4.43158085 12.615815,4.21195834 C12.5496445,3.91472487 12.4338462,3.77436462 12.2072124,3.71244098 C11.9144081,3.63483002 11.6464177,3.80161102 11.5521247,4.121137 C11.4809915,4.36718027 11.4818186,8.02480324 11.553779,8.2708465 C11.6083696,8.45579177 11.7828942,8.65807566 11.9119267,8.68614771 C12.0798342,8.7216506 12.2857898,8.68201947 12.4048966,8.59202378 L12.4040695,8.59202378 Z M11.8523732,9.99975452 C11.2220995,9.92379486 10.643108,9.55390432 10.3643649,9.04860742 C10.080659,8.53422838 10.0541908,8.26506696 10.0707334,5.99948741 C10.0839675,4.24498428 10.0889303,4.13517303 10.1584093,3.88335023 C10.3246626,3.28475505 10.6464165,2.87688467 11.1451764,2.63001576 C11.8300407,2.29232552 12.5686685,2.33608489 13.2146577,2.75386304 C13.6265689,3.01889622 13.8763624,3.40364843 14.0103576,3.97582286 C14.0690839,4.22847131 14.0748738,4.42249872 14.0748738,6.19434046 C14.0748738,8.34928311 14.0649482,8.47395604 13.8432772,8.94044746 C13.6307045,9.39042591 13.1493144,9.7867372 12.647246,9.9262718 C12.4255749,9.98654414 12.0409591,10.0228727 11.8523732,9.99975452 L11.8523732,9.99975452 Z"></path>
                        </g>
                    </g>
                </g>
            </g>
        </g>
    </g>
</svg>