<?xml version="1.0" encoding="UTF-8"?>
<svg width="50px" height="50px" viewBox="0 0 50 50" version="1.1" xmlns="http://www.w3.org/2000/svg" xmlns:xlink="http://www.w3.org/1999/xlink">
    <title>24AB3F94-143D-47F3-B131-442203BCDF92</title>
    <g id="00_Home" stroke="none" stroke-width="1" fill="none" fill-rule="evenodd">
        <g transform="translate(-60.000000, -5737.000000)">
            <rect fill="#FFFFFF" x="0" y="0" width="1440" height="5960"></rect>
            <g id="footer" transform="translate(0.000000, 5680.000000)">
                <rect id="Rectangle" fill="#211B15" x="0" y="0" width="1440" height="280"></rect>
                <g id="logo_completo" transform="translate(60.000000, 57.000000)" fill="#FFFFFF">
                    <path d="M45.6688963,30.3801271 L45.4886418,30.406188 C45.4386917,30.3888141 45.369196,30.3996728 45.2866699,30.4387641 C45.2084872,30.482199 45.125961,30.5451795 45.0390913,30.6298774 C44.9609087,30.716747 44.8805542,30.8231623 44.8023715,30.9534668 C44.7198454,31.085943 44.6525214,31.2314497 44.6025713,31.3856433 C44.4483777,31.8265068 44.4331755,32.1978746 44.5526213,32.4997466 C44.6720671,32.8016187 44.9739391,33.0405102 45.4560657,33.2055626 C45.4647526,33.0166211 45.3974287,32.7799013 45.4061156,32.5236358 C45.4191461,32.2738855 45.4669244,32.0176201 45.5603093,31.7504959 C45.629805,31.5485239 45.7231899,31.3595824 45.8404639,31.1814997 C45.9664249,31.0055886 46.1075881,30.8644254 46.2661252,30.7514949 C46.426834,30.6385643 46.6027451,30.5647251 46.7938583,30.5256338 C46.9871433,30.4930577 47.1934587,30.5104316 47.4128046,30.5842708 C47.8753855,30.7449797 48.1707423,31.0164473 48.3010468,31.4008455 C48.4313513,31.7895872 48.4096338,32.2456529 48.2293793,32.7712143 C48.1207923,33.0796016 47.9752856,33.3293518 47.7885158,33.5248085 C47.6039178,33.7246087 47.3867437,33.8722871 47.1435087,33.965672 C46.9024454,34.0612286 46.6374929,34.1068352 46.3464796,34.10032 C46.0641532,34.0938047 45.7666247,34.0395112 45.4625809,33.9330959 C45.134648,33.8179936 44.8610086,33.6746587 44.6394909,33.4944041 C44.4201451,33.3206648 44.2507493,33.1186929 44.1334752,32.8863166 C44.0227164,32.6604555 43.9684229,32.4150487 43.9662511,32.1479245 C43.9662511,31.8829721 44.0140294,31.6049892 44.1161013,31.3139759 C44.1834253,31.1141757 44.2550927,30.9447799 44.3245885,30.8057884 C44.3962559,30.6776557 44.4809538,30.5430077 44.572167,30.4105315 C44.6264605,30.3301771 44.6850975,30.2519944 44.7545932,30.1781552 C44.824089,30.1086595 44.8783825,30.0326485 44.9066151,29.9392636 C44.9131303,29.8111309 44.9044434,29.7807265 44.8892412,29.7503221 L45.6688963,30.3801271 Z M46.4376927,33.4596563 C46.6222908,33.520465 46.7895148,33.5356672 46.930678,33.5052629 C47.0783564,33.4770302 47.2086609,33.4140497 47.3237632,33.3206648 C47.4366937,33.2337952 47.5344221,33.1273799 47.6147765,32.9905602 C47.6994744,32.8602557 47.7602832,32.7190925 47.8102332,32.5779293 C47.9166486,32.2673703 47.9253355,31.9828722 47.8362941,31.7222632 C47.7472527,31.4659978 47.5626547,31.2944302 47.2846718,31.1988736 C47.1261347,31.1424083 46.9784563,31.1250344 46.8372931,31.1467518 C46.7026452,31.1728127 46.5788559,31.2271062 46.4724406,31.3052889 C46.368197,31.3899868 46.2748121,31.4964021 46.1901142,31.6201914 C46.1119315,31.7504959 46.048951,31.8873156 45.9946575,32.0393375 C45.9468792,32.1805007 45.9186466,32.3260073 45.9143031,32.4758575 C45.9077879,32.6278794 45.9229901,32.7690426 45.9599097,32.8950035 C45.999001,33.0318232 46.0598098,33.1447538 46.133649,33.2403104 C46.2118316,33.3423823 46.3139035,33.4140497 46.4376927,33.4596563 L46.4376927,33.4596563 Z M46.300873,23.1351981 C46.0858707,23.219896 46.0272336,23.2568156 45.9642531,23.3197961 C45.9034444,23.3871201 45.8491508,23.4739898 45.7970291,23.5847486 C45.7492507,23.6955074 45.7123311,23.8214684 45.679755,23.9713185 C45.6493506,24.1233404 45.6363202,24.2797058 45.6384919,24.4447581 C45.6471789,24.9116825 45.7601095,25.2678481 45.9772836,25.5089114 C46.192286,25.7521464 46.5549668,25.8737639 47.0696695,25.865077 C47.0110324,25.6826507 46.8698693,25.4828505 46.7895148,25.2417872 C46.7113321,25.0007239 46.6722408,24.740115 46.6678973,24.4577886 C46.6635538,24.2493014 46.6896147,24.0364708 46.737393,23.8301554 C46.7960301,23.6238399 46.880728,23.4392419 46.989315,23.2785331 C47.1000738,23.1178242 47.241237,22.9896915 47.4084611,22.8897914 C47.5778569,22.7898913 47.7798289,22.733426 48.0078617,22.733426 C48.4986752,22.724739 48.870043,22.8767609 49.1263085,23.1916634 C49.3804022,23.5152529 49.5150502,23.9517729 49.5215654,24.5077386 C49.5280806,24.8313281 49.4759588,25.1179979 49.3652,25.3655765 C49.2609564,25.6196702 49.1111063,25.8303291 48.9134778,26.0018967 C48.7201929,26.1734642 48.4856448,26.3059404 48.2098336,26.3971536 C47.938366,26.4883667 47.6430092,26.536145 47.3259349,26.5426602 C46.9784563,26.5491755 46.6678973,26.5079124 46.3986014,26.4145275 C46.1314772,26.3254861 45.9034444,26.1930099 45.7166746,26.0170988 C45.5342484,25.8390161 45.3952569,25.6283572 45.3040438,25.3786069 C45.2128306,25.1310284 45.1672241,24.8508738 45.1628806,24.5424865 C45.1585371,24.3318276 45.1672241,24.1494013 45.1824263,23.9973794 C45.2063154,23.8475293 45.243235,23.6976791 45.2801546,23.539142 C45.301872,23.4457571 45.3344482,23.3523723 45.3735395,23.2589874 C45.4169743,23.1721177 45.4386917,23.0787329 45.43652,22.9810045 L45.3887417,22.7051934 L46.300873,23.1351981 Z M48.0773574,25.7630051 C48.2728141,25.7586616 48.4313513,25.7195703 48.5551405,25.6413876 C48.685445,25.5610332 48.7875168,25.4589613 48.861356,25.3351721 C48.9395387,25.2113828 48.9938323,25.0767349 49.0242366,24.9225412 C49.0568128,24.7726911 49.0676715,24.6184974 49.0654997,24.4643038 C49.0611562,24.1407144 48.9721148,23.8714184 48.7983755,23.6542443 C48.626808,23.4479289 48.3922599,23.345857 48.0990748,23.3502005 C47.9318508,23.354544 47.7863441,23.3871201 47.6603831,23.4566158 C47.5431091,23.5282833 47.4453807,23.6194964 47.3715415,23.7280835 C47.3042175,23.8431858 47.2520957,23.9778338 47.2151761,24.1233404 C47.1847717,24.2710188 47.1717413,24.4230407 47.173913,24.5794061 C47.1782565,24.731428 47.2021457,24.8812781 47.249924,25.0180978 C47.2933588,25.167948 47.3563393,25.2917372 47.434522,25.3981526 C47.5192199,25.5132549 47.6126048,25.6022963 47.7168484,25.663105 C47.8254354,25.7326007 47.9470529,25.7651769 48.0773574,25.7630051 L48.0773574,25.7630051 Z M43.816401,17.4843273 C43.933675,17.5212469 43.9684229,17.5668534 44.0053425,17.5798839 L47.0588108,16.5743677 C46.9849716,16.4071436 46.9632541,16.370224 46.930678,16.3311326 C46.7916866,16.2486065 46.74608,16.2486065 46.7026452,16.2638087 L47.4540677,15.9011279 C47.3889154,16.0292606 47.3519958,16.0770389 47.3737132,16.1443629 C47.3954307,16.2073434 47.443209,16.2768391 47.5148764,16.3463348 C47.5865439,16.420174 47.6538679,16.4484067 47.7211919,16.4223458 C47.8189202,16.3919414 47.8471528,16.311587 47.8058898,16.1964847 L48.2120054,17.0716964 C48.0969031,17.0434638 48.0686705,17.0087159 48.0295791,17.000029 L44.3810537,18.2183758 C44.2333753,18.3421651 44.2377188,18.3964586 44.261608,18.4702978 L43.816401,17.4843273 Z M36.4498545,7.35532583 C36.2348521,7.47477161 36.2001042,7.50517598 36.1783868,7.53123688 L36.1762151,7.7636132 L35.3770143,7.15986912 C35.5268644,7.13597996 35.5594406,7.1381517 35.5898449,7.12946474 L35.9329801,6.97744285 L39.0950354,5.23570632 L39.2926639,5.129291 C39.4273118,5.00550174 39.4077661,4.94903647 39.3295835,4.8925712 L40.3394432,5.53106314 C40.2113104,5.55495229 40.1570169,5.55495229 40.1179256,5.60924583 L40.0288842,5.97192662 L39.32524,9.50534972 L39.2818052,9.75509997 C39.2709464,9.9353545 39.2839769,9.96575888 39.2991791,9.98313281 L38.4217956,9.45539967 C38.5325544,9.41848007 38.5716457,9.435854 38.5998784,9.435854 L38.762759,9.0992341 L38.9082656,8.39124643 L37.0644573,7.00350374 L36.4498545,7.35532583 Z M39.0125092,7.79618932 L39.4316553,5.70480244 L37.5965339,6.72986434 L39.0125092,7.79618932 Z M29.6197281,3.47008064 C29.6761934,3.58735467 29.6566477,3.62210254 29.645789,3.65033517 C29.6218998,3.72417438 29.6414455,3.81321577 29.704426,3.91745935 C29.7739217,4.02604642 29.8694783,4.13680522 29.9910959,4.25407925 C30.1235721,4.36483806 30.2712505,4.46908164 30.4449898,4.57115348 C30.6165574,4.67105358 30.7989836,4.75357975 30.9900969,4.81656025 C31.4830821,4.97726911 31.8609651,5.01853219 32.1259176,4.94469299 C32.3952135,4.87302553 32.566781,4.72317538 32.6384485,4.49514254 C32.6753681,4.38655547 32.6775399,4.28665537 32.6406202,4.19544224 C32.6123876,4.10640085 32.5559223,4.02821816 32.4690527,3.95872244 C32.39087,3.88922672 32.2866264,3.82407448 32.1628372,3.76543746 C32.0477349,3.71114393 31.9130869,3.65902214 31.769752,3.61341557 L31.0074708,3.36583706 C30.7468618,3.27462393 30.5144855,3.16386512 30.3146853,3.02704542 C30.1105416,2.89022572 29.965035,2.72082989 29.8694783,2.52320144 C29.7739217,2.32557298 29.7739217,2.08233795 29.8694783,1.78480939 C29.9259436,1.59803964 30.0345307,1.45036123 30.1843808,1.33091546 C30.3385745,1.20929795 30.5210007,1.1224283 30.7316596,1.07464999 C30.9510055,1.0225282 31.1877253,1.00732601 31.450506,1.0225282 C31.7154585,1.03990213 31.9890979,1.0963674 32.273596,1.18758054 C32.4972853,1.26141974 32.6840551,1.33743069 32.8317335,1.41995685 C32.9859271,1.50465477 33.1205751,1.58283745 33.2269904,1.6588484 L33.4897711,1.85430512 C33.5549233,1.91294213 33.6135604,1.94768999 33.6678539,1.96506392 L33.9002302,1.93031606 L33.26391,2.75123427 L33.2378491,2.57097974 C33.1422925,2.33860343 33.070625,2.26259248 32.9707249,2.17789457 C32.8751683,2.08885318 32.7535508,2.00415527 32.6015289,1.91945735 C32.458194,1.8325877 32.2953134,1.7587485 32.1063719,1.70011148 C31.6893976,1.56112004 31.333232,1.5220287 31.0422187,1.57415049 C30.7555488,1.6327875 30.577466,1.76526372 30.5057985,1.98460959 C30.4732224,2.08233795 30.4732224,2.17137935 30.5057985,2.25173377 C30.5427182,2.32340124 30.6035269,2.3950687 30.6860531,2.46456442 C30.7750945,2.52754492 30.8771663,2.58183845 30.9966121,2.63396024 C31.1247448,2.68391029 31.2593928,2.73603208 31.4048994,2.78163865 C31.6459627,2.85982134 31.8978847,2.94669099 32.1584937,3.04441935 C32.4191026,3.13346074 32.6493072,3.25290651 32.8512792,3.39624144 C33.0467359,3.54391985 33.1944143,3.71983089 33.2877992,3.92397458 C33.381184,4.13246174 33.3746688,4.39089896 33.2747687,4.7036297 C33.2226469,4.86868204 33.1270903,5.01201697 32.9859271,5.14014971 C32.8577944,5.26393896 32.6840551,5.35732384 32.4777397,5.42030433 C32.264909,5.48111309 32.0260175,5.50717399 31.7502063,5.4919718 C31.4809104,5.47676961 31.1790384,5.41813259 30.8489337,5.30954553 C30.568779,5.21833239 30.3320592,5.11843229 30.140946,5.01201697 C29.9541763,4.90125816 29.7956391,4.7926711 29.6718499,4.68842751 L29.3656344,4.40827289 C29.2896234,4.32791846 29.2244712,4.27579667 29.1658342,4.26059448 C29.1137124,4.24322055 29.0529036,4.256251 28.9747209,4.29751408 L29.6197281,3.47008064 Z M21.7471659,3.13563248 C21.8448942,3.3680088 21.8991878,3.44619149 21.9969161,3.52003069 C22.0968162,3.5938699 22.2271207,3.66119388 22.3834861,3.72200264 C22.5485384,3.77412443 22.7287929,3.81755925 22.9242497,3.84579189 C23.1218781,3.87836801 23.3216783,3.88488323 23.5236503,3.87185278 C24.038353,3.83276144 24.4032055,3.7306896 24.6225514,3.56346552 C24.844069,3.39624144 24.9461408,3.19209776 24.9287669,2.95320621 C24.9222517,2.84027567 24.8875038,2.74689079 24.8201798,2.67522333 C24.7615428,2.60572761 24.6790166,2.55360581 24.5726013,2.52320144 C24.4727012,2.48411009 24.3554272,2.46456442 24.2164357,2.4580492 C24.0861313,2.44936223 23.9427963,2.45153397 23.7929462,2.46239268 L22.9959171,2.51885795 C22.720106,2.5318884 22.459497,2.51451447 22.2227772,2.46456442 C21.9860574,2.41027089 21.7840855,2.31037079 21.6233766,2.16486412 C21.460496,2.01718571 21.3692829,1.79132462 21.3475655,1.47859387 C21.3301915,1.28748064 21.3736264,1.10722611 21.469183,0.940002027 C21.5669113,0.768434464 21.7059028,0.622927797 21.8796421,0.492623319 C22.0620684,0.368834064 22.2792425,0.264590482 22.5311645,0.182064312 C22.778743,0.0973664017 23.0523824,0.0430728692 23.3542544,0.0235271974 C23.584459,0.00832500833 23.7886027,0.0104967496 23.9558268,0.0300424213 C24.1317378,0.0495880931 24.2837597,0.07782073 24.4118925,0.106053367 L24.7289667,0.190751278 C24.8114929,0.214640432 24.8831603,0.22767088 24.9352821,0.223327397 L25.1394258,0.103881626 L24.8570994,1.10505437 C24.7615428,0.909597649 24.7267949,0.863991081 24.6572992,0.816212773 C24.5878035,0.764090981 24.4922469,0.720656155 24.3706294,0.679393071 C24.2490119,0.635958245 24.1013334,0.599038643 23.9297659,0.579492971 C23.7647135,0.555603816 23.584459,0.549088593 23.3890023,0.56211904 C22.9503106,0.590351677 22.6050037,0.685908295 22.3574252,0.84444541 C22.1098467,1.00515427 21.9969161,1.1962675 22.0099466,1.42430034 C22.0186335,1.53071566 22.0512097,1.61107009 22.1098467,1.67187885 C22.1749989,1.72834412 22.2575251,1.7696072 22.3574252,1.80218332 C22.4616688,1.82824422 22.5789428,1.83910293 22.711419,1.84127467 C22.846067,1.84344641 22.9937454,1.83910293 23.1435955,1.83041596 C23.3976893,1.81087029 23.6626417,1.79783984 23.9406246,1.79132462 C24.2186075,1.77395069 24.474873,1.80001158 24.7159362,1.85647686 C24.952656,1.91728561 25.1567997,2.02587268 25.3175086,2.18440979 C25.4803892,2.34294691 25.5737741,2.58183845 25.5998349,2.90977139 C25.6106937,3.08133895 25.5737741,3.25290651 25.4934196,3.42230234 C25.4195804,3.58518293 25.2957912,3.73503308 25.1242236,3.87402453 C24.9548278,4.00867249 24.7398254,4.12160303 24.4792164,4.21064443 C24.222951,4.29968582 23.9210789,4.35832284 23.5736003,4.38004025 C23.282587,4.40175766 23.0241498,4.39741418 22.8069756,4.36918154 C22.5898015,4.33660542 22.4052035,4.2931706 22.2510099,4.24539229 L21.8622682,4.09988562 C21.7623681,4.05427905 21.6820136,4.0303899 21.6233766,4.03473338 L21.3736264,4.10205736 L21.7471659,3.13563248 Z M14.3958216,2.28430989 C14.7128958,2.13445974 15.0321418,2.04107487 15.3427008,2.00632701 C15.6532598,1.96072044 15.9464449,1.98243785 16.222256,2.06279228 C16.5024106,2.13445974 16.7565044,2.27127945 16.978022,2.46456442 C17.2082266,2.6578494 17.3949963,2.91628661 17.5470182,3.23770432 C17.6946966,3.55477855 17.7685358,3.86533756 17.7707076,4.1672096 C17.7772228,4.46256642 17.7185858,4.74054931 17.5947965,5.00333 C17.4775225,5.26393896 17.2994397,5.49631528 17.0692351,5.70914593 C16.8368588,5.91111787 16.5588759,6.08920065 16.2374582,6.24122255 C15.9182122,6.38890095 15.6033097,6.48662931 15.2970942,6.53657936 C14.9843635,6.57567071 14.6890066,6.56046852 14.408852,6.48662931 C14.1352126,6.41496185 13.8832906,6.27814215 13.6574295,6.08485717 C13.4315684,5.8915722 13.2447987,5.63096324 13.0949485,5.30954553 C12.9494419,4.9924713 12.8690874,4.68191229 12.864744,4.38438373 C12.8625722,4.08685517 12.9190375,3.80887229 13.040655,3.54826333 C13.1601008,3.27896741 13.3360118,3.04224761 13.5705599,2.8315887 C13.7985927,2.61875805 14.0722321,2.43633178 14.3958216,2.28430989 L14.3958216,2.28430989 Z M14.6281979,2.79032562 C14.1265256,3.02053019 13.7985927,3.33760442 13.6465708,3.7306896 C13.4988924,4.11943129 13.5292968,4.54509259 13.7486427,5.00550174 C13.9614733,5.47025438 14.2676888,5.77429817 14.6651175,5.91111787 C15.0603744,6.04576583 15.5099249,5.99364404 16.0159406,5.75909598 C16.5154411,5.52671966 16.843374,5.21181717 16.9910524,4.82524722 C17.1430743,4.43216204 17.1126699,4.00215726 16.8933241,3.53957637 C16.6783217,3.07699547 16.3742779,2.77729517 15.9746775,2.64481895 C15.5815923,2.50582751 15.1298701,2.55360581 14.6281979,2.79032562 L14.6281979,2.79032562 Z M8.84919428,11.4208256 C9.02510533,11.4946648 9.07288364,11.4642604 9.12717717,11.4121386 L8.46262433,12.2634612 C8.44307866,12.1440154 8.46479607,12.0918936 8.46045259,12.0528023 L5.6741085,9.39676266 C5.49819745,9.32726694 5.4482474,9.34898435 5.39612561,9.40762136 L7.18781219,7.34229539 C7.55483647,6.94921021 7.89362811,6.73420782 8.20418712,6.70814693 C8.51257438,6.67122732 8.80575946,6.78850135 9.08808583,7.05128205 C9.33783608,7.28148663 9.47465578,7.53340862 9.50288842,7.80270454 C9.52460583,8.07200046 9.42036225,8.37170076 9.17929896,8.70832066 L11.0448247,9.04276883 C11.1490683,9.05797101 11.2229075,9.0623145 11.2641706,9.05797101 L11.4900317,9.01887967 L10.6886592,9.88106097 C10.66477,9.7616152 10.6908309,9.72469559 10.6930026,9.70514992 L8.72540503,9.25342773 L7.70468662,10.3523288 L8.84919428,11.4208256 Z M7.29857099,9.97444584 L8.51691786,8.66922932 C8.74060722,8.4259943 8.85788125,8.21099191 8.85788125,8.0263939 C8.86005299,7.84179589 8.7818703,7.67674355 8.61898971,7.52906514 C8.54080702,7.45305419 8.46262433,7.4009324 8.38878513,7.36835628 C8.31711766,7.3379519 8.23893498,7.33143668 8.15423707,7.34881061 C8.06519567,7.36184106 7.9718108,7.40961937 7.86973896,7.48345857 C7.76983886,7.55295429 7.65039309,7.65719787 7.52443209,7.79836106 L6.33431786,9.0731732 L7.29857099,9.97444584 Z M4.75111845,18.2813563 C4.91834253,18.4572674 4.95743387,18.4855 4.99000999,18.4985305 L5.21369934,18.4420652 L4.8379881,19.3715705 C4.7750076,19.2260638 4.76849238,19.2000029 4.75111845,19.1695985 L4.51874213,18.8785852 L2.01472441,16.2790108 C1.82795465,16.0705237 1.79320679,16.0466345 1.76931764,16.0379476 L1.53476958,16.1009281 L1.97997655,14.9955117 C2.03644182,15.1149575 2.04947227,15.1649076 2.11028102,15.1909685 L2.48382053,15.1844532 L6.08022412,14.9477334 L6.3364896,14.9281878 C6.51240064,14.8890964 6.53411806,14.8695507 6.54932024,14.8478333 L6.26699388,15.8338039 C6.19098293,15.6383472 6.16926552,15.614458 6.13234591,15.6014276 L5.83481736,15.5949123 L5.11379924,15.6405189 L4.25161795,17.7775123 L4.75111845,18.2813563 Z M4.5122269,15.6926407 L2.38174869,15.8294604 L3.84767407,17.3344771 L4.5122269,15.6926407 Z M3.96277635,25.7000246 C4.14303088,25.6327006 4.16257655,25.5805788 4.1647483,25.5067396 L4.24293098,26.5860951 C4.06050471,26.3971536 4.01055466,26.3819514 3.94974591,26.3819514 L0.249098727,26.3189709 C0.0710159406,26.3819514 0.0514702689,26.4362449 0.0492985276,26.5122559 L0.00152021891,23.7780336 C0.0123789254,23.2416135 0.118794249,22.8550435 0.329453156,22.6270107 C0.537940321,22.3946344 0.831125396,22.2817038 1.21552361,22.288219 C1.55865873,22.2947343 1.8301264,22.3881191 2.02775485,22.5727171 C2.22538331,22.7551434 2.34917257,23.0505002 2.39477913,23.4587876 L4.0018677,22.4619583 C4.09090909,22.4011496 4.15171785,22.3577147 4.17777874,22.3251386 C4.20383964,22.2860473 4.21904183,22.2274103 4.21904183,22.1448841 L4.29722451,23.3219679 C4.09742431,23.1569155 4.06919168,23.169946 4.0387873,23.1938352 L2.42301177,24.1711187 L2.39695088,25.6696202 L3.96277635,25.7000246 Z M1.84315684,25.6587615 L1.87356122,23.8757619 C1.88007645,23.5456572 1.82361117,23.3089374 1.69765018,23.1721177 C1.57603266,23.0309546 1.40663684,22.9636306 1.19163445,22.9571153 C1.08304739,22.9549436 0.989662511,22.9701458 0.913651566,22.9962067 C0.833297138,23.0200958 0.77031664,23.0700459 0.722538331,23.1373699 C0.663901316,23.2068656 0.626981714,23.304594 0.600920818,23.430555 C0.572688181,23.547829 0.557485992,23.7041944 0.555314251,23.8953076 L0.522738131,25.6370441 L1.84315684,25.6587615 Z M2.61195326,35.5097801 C2.46861834,35.6379128 2.46861834,35.6922063 2.49685098,35.7638738 L1.50002172,33.4379389 C1.3784042,33.1252081 1.32193893,32.8211643 1.32628241,32.5344945 C1.32628241,32.2434812 1.38057595,31.976357 1.49350649,31.7374654 C1.60209356,31.4942304 1.76280241,31.2727128 1.97346132,31.0794278 C2.18412023,30.8904863 2.43169874,30.7406362 2.72054033,30.6298774 C3.00721018,30.5169468 3.29170829,30.4539663 3.57186292,30.4409359 C3.84767407,30.4279054 4.10393954,30.4691685 4.34717456,30.5668969 C4.58172263,30.6559383 4.79889676,30.7971014 4.99218173,30.9969016 C5.17677974,31.1923584 5.33097337,31.4464521 5.4482474,31.7570111 L6.41250054,34.2588571 C6.29088303,34.226281 6.26047865,34.1850179 6.21704383,34.167644 L2.61195326,35.5097801 Z M5.59158233,33.6312238 L4.9748078,32.0197918 C4.80324024,31.5724131 4.54480302,31.2835715 4.20601138,31.1576105 C3.86721974,31.0338213 3.45241715,31.0642256 2.95726013,31.2531671 C2.4664466,31.4421086 2.14285714,31.7135763 1.99083525,32.0719136 C1.83229814,32.4215639 1.84315684,32.8363665 2.02558311,33.3076344 L2.59240759,34.7822467 L5.59158233,33.6312238 Z M8.08908483,38.5198135 L5.95209139,40.5113003 C5.87173696,40.6828679 5.89345437,40.7349896 5.94340442,40.7914549 L5.20501238,40.1399325 C5.33097337,40.1290738 5.37657994,40.152963 5.42652999,40.1464478 L8.26065239,37.5599039 C8.3453503,37.3883363 8.32363289,37.3362145 8.26933936,37.2840927 L9.05550971,37.9768782 C8.9078313,37.9638477 8.85570951,37.9399586 8.82313339,37.970363 L8.33231985,42.511474 L10.7646701,40.2398326 C10.849368,40.0704368 10.8233071,40.0204868 10.7755288,39.9640215 L11.5117491,40.6155439 C11.3901316,40.6264026 11.3401816,40.5981699 11.3010902,40.6003417 L8.45610911,43.1955725 C8.37358294,43.3649684 8.39312861,43.4192619 8.4452504,43.4713837 L7.43756244,42.5331914 C7.5461495,42.5093023 7.58089736,42.5331914 7.60913,42.5397067 C7.71120184,42.3963717 7.70251488,42.3833413 8.08908483,38.5198135 L8.08908483,38.5198135 Z M17.4406029,44.509476 C17.6252009,44.3509389 17.6599487,44.3118476 17.6708075,44.2836149 L17.6252009,44.0577538 L18.5351605,44.4790717 C18.3874821,44.5355369 18.3614212,44.5398804 18.3288451,44.5529109 L18.026973,44.7744285 L15.299266,47.137283 L15.1255266,47.2784462 C15.0191113,47.4304681 15.047344,47.4782464 15.1363854,47.5216812 L14.0179386,47.1047069 C14.1373844,47.0547568 14.1895061,47.0438981 14.2199105,46.9852611 L14.2285975,46.6117216 L14.1808192,43.0066311 L14.174304,42.7525373 C14.1460713,42.5744545 14.1308691,42.5505654 14.1091517,42.5331914 L15.0755766,42.8654679 C14.9756765,42.9262766 14.9344134,42.9154179 14.9061808,42.9219331 L14.8171394,43.2846139 L14.8214829,44.0078038 L16.9150415,44.9850874 L17.4406029,44.509476 Z M14.8475438,44.6137196 L14.8670894,46.7463696 L16.4502888,45.3607986 L14.8475438,44.6137196 Z M26.698736,45.3499399 C26.6096947,45.4454965 26.5488859,45.458527 26.522825,45.4889314 L26.3490857,49.3350852 C26.4185814,49.5153397 26.4750467,49.5348854 26.5684316,49.5370571 L25.1872041,49.5891789 C25.3153368,49.4957941 25.3783173,49.4610462 25.3804891,49.3915505 L24.1143639,46.6464695 L22.6462668,49.2069525 C22.6831864,49.3937222 22.7353082,49.4067527 22.8134909,49.4089244 L21.351909,49.4523592 C21.4474656,49.3589744 21.5082743,49.3416004 21.5430222,49.3068526 L21.7189332,45.4672139 C21.6494375,45.2869594 21.586457,45.2674137 21.4952439,45.265242 L22.6397516,45.206605 C22.5463667,45.3021616 22.4833862,45.3173638 22.4573253,45.3499399 L22.2879295,48.7117955 L24.1708292,45.3434247 L25.7866047,48.8507869 L25.9038787,45.6170641 C25.8517569,45.4346378 25.8018069,45.4172639 25.7236242,45.4150922 L26.698736,45.3499399 Z M42.2961821,40.1681652 C42.4503757,40.2897827 42.5980541,40.3636219 42.7435608,40.3809958 C42.8934109,40.404885 43.0345741,40.3918545 43.1757373,40.3440762 C43.312557,40.3006414 43.4428615,40.2311457 43.5623073,40.1334173 C43.6839248,40.0356889 43.7946836,39.9271019 43.8902402,39.8098279 C44.0943839,39.5579059 44.1986275,39.2929534 44.2051427,39.0171423 C44.2073144,38.7478464 44.0943839,38.5176418 43.866351,38.3330438 C43.7360466,38.2266284 43.6035703,38.1593045 43.4624072,38.1310718 C43.3255875,38.1136979 43.1931112,38.1202131 43.0671502,38.154961 C42.9390175,38.2027393 42.8152283,38.2700633 42.691439,38.3591047 C42.574165,38.4524895 42.4655779,38.5610766 42.3656778,38.6826941 C42.2722929,38.8021399 42.196282,38.9302726 42.1398167,39.0649206 C42.0833514,39.2060838 42.0486036,39.3450752 42.0377449,39.4753797 C42.0290579,39.6187146 42.0442601,39.7446756 42.0876949,39.8597779 C42.1246145,39.9857389 42.1941102,40.0878107 42.2961821,40.1681652 L42.2961821,40.1681652 Z M42.6284585,37.0147968 L42.4503757,36.9735337 C42.4047691,36.9409576 42.3417886,36.9300989 42.2484038,36.9387859 C42.1615341,36.9496446 42.061634,36.9822207 41.9487035,37.0321707 C41.8422881,37.088636 41.7337011,37.1603035 41.6164271,37.2536883 C41.4926378,37.3535884 41.3797072,37.4643472 41.2798071,37.5903082 C40.9866221,37.952989 40.8411154,38.2982959 40.8519741,38.6218854 C40.8606611,38.9476466 41.062633,39.2755795 41.4622334,39.5948255 C41.5360726,39.4210862 41.5512748,39.1778511 41.6446597,38.9367878 C41.7402163,38.708755 41.877036,38.4807222 42.0551188,38.263548 C42.1897668,38.0984957 42.3439604,37.952989 42.5133562,37.827028 C42.691439,37.7032388 42.8738653,37.6163691 43.0628068,37.5664191 C43.2517483,37.5142973 43.4406897,37.5034386 43.6339747,37.5360147 C43.8294314,37.5707626 44.0162012,37.6576322 44.1921122,37.7987954 C44.572167,38.1093544 44.7589367,38.4676917 44.7524215,38.8716356 C44.7415628,39.2842665 44.5613083,39.7055843 44.2116579,40.1334173 C44.0075142,40.387511 43.7859966,40.5742808 43.5427616,40.6915548 C43.2995266,40.8196876 43.0454328,40.8848398 42.7848239,40.8891833 C42.5285584,40.8978702 42.263606,40.8457485 41.99431,40.7415049 C41.7271859,40.6372613 41.4687486,40.4830677 41.2189984,40.2832675 C40.9475307,40.0617498 40.7412153,39.833717 40.5957086,39.5861385 C40.4480302,39.3494187 40.3589888,39.1018402 40.3264127,38.843403 C40.2981801,38.591481 40.3307562,38.3417307 40.4197976,38.0941522 C40.5110107,37.844402 40.6521739,37.5989952 40.8476306,37.3579319 C40.9844503,37.1950513 41.1038961,37.0582316 41.2168267,36.953988 C41.3297572,36.8562597 41.4557182,36.7607031 41.5860227,36.6673182 C41.6620336,36.6065094 41.7445598,36.5565594 41.8379447,36.5109528 C41.9248143,36.4740332 42.002997,36.4132245 42.061634,36.3372135 C42.1115841,36.2199395 42.1137558,36.1873634 42.1072406,36.1526155 L42.6284585,37.0147968 Z M14.7221658,17.952628 L14.2130043,17.6665303 C14.7047586,18.2105493 15.2335032,18.6873787 15.7644238,19.1425341 L16.8371444,20.0528448 C17.185289,20.3562817 17.5160264,20.6575512 17.8206529,20.97616 C18.362453,21.5440205 18.838976,22.2896083 19.1436025,23.061205 L23.5389284,24.0798861 C21.8982969,22.1682336 18.2667132,19.7429057 16.3540937,18.7914143 C15.7905346,18.5096514 15.2422068,18.2365582 14.7221658,17.952628 M35.4476505,26.7674701 C36.2853735,26.7783072 37.0991615,26.7913116 37.8650797,26.851999 C37.1840218,26.5767384 36.5007879,26.3751696 35.8219059,26.1952748 C34.8840913,25.9481905 33.9876189,25.7422869 33.171655,25.4366826 C32.4361995,25.1592545 31.6811608,24.6954295 31.0697318,24.1340713 L26.6678782,25.1224086 C28.9808641,26.13242 33.3087369,26.7392939 35.4476505,26.7674701 M13.109821,28.6032634 L12.565845,28.8221715 C13.3013005,28.776656 14.0041175,28.6617834 14.693879,28.531739 C15.646925,28.3518443 16.5433974,28.1481081 17.411583,28.0722488 C18.1970843,28.0050592 19.0805013,28.1025925 19.8747062,28.3431747 L23.4149019,25.5537225 C20.8908534,25.6382514 16.7239974,26.9582019 14.7830911,27.8533408 C14.2130043,28.1177644 13.6559729,28.3756858 13.109821,28.6032634 M20.4252099,36.4926231 L20.2576653,37.0518139 C20.6819666,36.4514423 21.0279353,35.8315641 21.3564968,35.2138532 C21.8090848,34.3577277 22.2072752,33.5341132 22.6903259,32.8101994 C23.1255067,32.1556427 23.7478152,31.5270948 24.4375767,31.058935 L24.452808,26.5680687 C22.9470825,28.5837568 21.3869594,32.6519788 20.8799738,34.721852 C20.7298365,35.3330606 20.5862268,35.9247626 20.4252099,36.4926231 M24.4245213,14.4154206 C24.2526249,13.5983083 24.0829044,12.8050375 23.9741092,12.0464453 C23.8522586,12.770359 23.8087405,13.4812684 23.7826296,14.1770058 C23.7434634,15.1436691 23.7434634,16.0583147 23.6237887,16.9187751 C23.5149935,17.696874 23.2255982,18.5356603 22.8100006,19.2530718 L24.748731,23.3126242 C25.2296057,20.8396134 24.8684057,16.5004656 24.4245213,14.4154206 M34.1247009,16.51347 L34.5163636,16.0843236 C33.8744719,16.4397782 33.2913297,16.8472506 32.7277706,17.2677275 C31.9509729,17.8399228 31.2307487,18.4121181 30.4822377,18.8564365 C29.8055316,19.2595741 28.9699845,19.5543413 28.1474929,19.6822183 L26.1804757,23.7265988 C28.415129,22.5540319 31.5897728,19.5608436 32.945361,17.9136146 C33.3435514,17.430283 33.7330382,16.955621 34.1247009,16.51347 M25.1447455,31.4252267 C24.9728491,31.4620726 24.8684057,31.4685748 24.8553503,31.4360637 C21.8765378,33.1981652 22.1855162,37.6240092 17.4986192,40.2639103 C19.9334556,36.806897 18.273241,31.2496668 19.8268363,28.9045329 C16.5956191,27.6864505 13.314356,30.6796389 8.32500833,28.6747879 C12.5549655,28.4168665 15.8840985,23.6594092 18.6931904,23.4101575 C17.6422288,20.1005278 13.222968,19.4221295 11.6846039,14.2702043 C14.5219826,17.4064415 20.333822,17.0336476 22.2812559,19.0645075 C24.1786441,16.1991961 21.9940366,12.3520496 25.064237,7.96305144 C24.3722996,12.1266393 28.2845748,16.4202716 27.9037916,19.2053889 C31.3765343,18.8824453 33.0215176,14.7361967 38.400352,14.3785746 C34.7034913,16.4419456 33.7852599,22.1682336 31.3678306,23.6095589 C33.7091032,26.1475919 37.9825785,24.8406458 41.6250416,28.8135019 C37.8041544,27.2638062 32.899667,29.9253814 30.2102498,29.1602869 C30.249416,32.6498114 41.910085,38.5126459 33.2521634,48.8641793 C39.1401594,41.7940993 26.4024179,34.2255159 25.1447455,31.4252267 M35.4520023,44.8761514 C38.5744244,37.5351456 28.5826736,31.2540016 29.8272907,29.123441 L26.3066782,26.3123148 C24.5855382,29.5114068 37.699711,38.7163821 35.4520023,44.8761514" id="marchio"></path>
                </g>
            </g>
        </g>
    </g>
</svg>